<svg width="17" height="17" viewBox="0 0 17 17" fill="none" xmlns="http://www.w3.org/2000/svg">
<path d="M6 1H1.83333C1.3731 1 1 1.3731 1 1.83333V6C1 6.46025 1.3731 6.83333 1.83333 6.83333H6C6.46025 6.83333 6.83333 6.46025 6.83333 6V1.83333C6.83333 1.3731 6.46025 1 6 1Z" stroke="#828282" stroke-width="1.5" stroke-linejoin="round"/>
<path d="M6 10.1667H1.83333C1.3731 10.1667 1 10.5398 1 11.0001V15.1667C1 15.627 1.3731 16.0001 1.83333 16.0001H6C6.46025 16.0001 6.83333 15.627 6.83333 15.1667V11.0001C6.83333 10.5398 6.46025 10.1667 6 10.1667Z" stroke="#828282" stroke-width="1.5" stroke-linejoin="round"/>
<path d="M15.1665 1H10.9998C10.5396 1 10.1665 1.3731 10.1665 1.83333V6C10.1665 6.46025 10.5396 6.83333 10.9998 6.83333H15.1665C15.6268 6.83333 15.9998 6.46025 15.9998 6V1.83333C15.9998 1.3731 15.6268 1 15.1665 1Z" stroke="#828282" stroke-width="1.5" stroke-linejoin="round"/>
<path d="M15.1665 10.1667H10.9998C10.5396 10.1667 10.1665 10.5398 10.1665 11.0001V15.1667C10.1665 15.627 10.5396 16.0001 10.9998 16.0001H15.1665C15.6268 16.0001 15.9998 15.627 15.9998 15.1667V11.0001C15.9998 10.5398 15.6268 10.1667 15.1665 10.1667Z" stroke="#828282" stroke-width="1.5" stroke-linejoin="round"/>
</svg>
