<svg width="24" height="24" viewBox="0 0 24 24" fill="none" xmlns="http://www.w3.org/2000/svg">
<path d="M24 0H0V24H24V0Z" fill="white" fill-opacity="0.01"/>
<path d="M21.0002 2H3C2.4477 2 1.99999 2.44773 2 3.00003L2.00049 21C2.00051 21.5523 2.44822 22 3.00049 22H21.0002C21.5525 22 22.0002 21.5523 22.0002 21V3C22.0002 2.44771 21.5525 2 21.0002 2Z" stroke="white" stroke-width="1.5"/>
<path d="M10.0044 17.0042H16.7502V10.0042" stroke="white" stroke-width="1.5" stroke-linecap="round" stroke-linejoin="round"/>
<path d="M12.25 19.25L11.5 18.5L10 17L11.5 15.5L12.25 14.75" stroke="white" stroke-width="1.5" stroke-linecap="round" stroke-linejoin="round"/>
<path d="M14.5 12.25L15.25 11.5L16.75 10L18.25 11.5L19 12.25" stroke="white" stroke-width="1.5" stroke-linecap="round" stroke-linejoin="round"/>
<path d="M7 2V22" stroke="white" stroke-width="1.5" stroke-linecap="round"/>
<path d="M2 7.0189L22 7" stroke="white" stroke-width="1.5" stroke-linecap="round"/>
<path d="M4 2H14" stroke="white" stroke-width="1.5" stroke-linecap="round" stroke-linejoin="round"/>
<path d="M4 22H14" stroke="white" stroke-width="1.5" stroke-linecap="round" stroke-linejoin="round"/>
<path d="M22 4V9" stroke="white" stroke-width="1.5" stroke-linecap="round"/>
<path d="M2 4V9" stroke="white" stroke-width="1.5" stroke-linecap="round"/>
</svg>
