<?xml version="1.0" encoding="utf-8"?>
<svg width="24px" height="24px" fill="none" viewBox="0 0 24 24" xmlns="http://www.w3.org/2000/svg">
  <path d="M 8.319 1 L 2.22 1 C 1.546 1 1 1.546 1 2.22 L 1 8.319 C 1 8.993 1.546 9.539 2.22 9.539 L 8.319 9.539 C 8.993 9.539 9.539 8.993 9.539 8.319 L 9.539 2.22 C 9.539 1.546 8.993 1 8.319 1 Z" stroke="white" stroke-linejoin="round" style="stroke-width: 1.5px;"/>
  <path d="M 8.319 14.419 L 2.22 14.419 C 1.546 14.419 1 14.965 1 15.639 L 1 21.739 C 1 22.412 1.546 22.959 2.22 22.959 L 8.319 22.959 C 8.993 22.959 9.539 22.412 9.539 21.739 L 9.539 15.639 C 9.539 14.965 8.993 14.419 8.319 14.419 Z" stroke="white" stroke-linejoin="round" style="stroke-width: 1.5px;"/>
  <path d="M 21.738 1 L 15.639 1 C 14.965 1 14.419 1.546 14.419 2.22 L 14.419 8.319 C 14.419 8.993 14.965 9.539 15.639 9.539 L 21.738 9.539 C 22.412 9.539 22.958 8.993 22.958 8.319 L 22.958 2.22 C 22.958 1.546 22.412 1 21.738 1 Z" stroke="white" stroke-linejoin="round" style="stroke-width: 1.5px;"/>
  <path d="M 21.738 14.419 L 15.639 14.419 C 14.965 14.419 14.419 14.965 14.419 15.639 L 14.419 21.739 C 14.419 22.412 14.965 22.959 15.639 22.959 L 21.738 22.959 C 22.412 22.959 22.958 22.412 22.958 21.739 L 22.958 15.639 C 22.958 14.965 22.412 14.419 21.738 14.419 Z" stroke="white" stroke-linejoin="round" style="stroke-width: 1.5px;"/>
</svg>