<svg width="16" height="16" viewBox="0 0 16 16" fill="none" xmlns="http://www.w3.org/2000/svg">
<path fill-rule="evenodd" clip-rule="evenodd" d="M4.99996 2.00002C4.81586 2.00002 4.66663 2.14925 4.66663 2.33335V3.33335H11C11.9204 3.33335 12.6666 4.07955 12.6666 5.00002V11.3334H13.6666C13.8507 11.3334 14 11.1841 14 11V2.33335C14 2.14925 13.8507 2.00002 13.6666 2.00002H4.99996ZM12.6666 12.6667H13.6666C14.5871 12.6667 15.3333 11.9205 15.3333 11V2.33335C15.3333 1.41289 14.5871 0.666687 13.6666 0.666687H4.99996C4.07946 0.666687 3.33329 1.41289 3.33329 2.33335V3.33335H2.33329C1.41282 3.33335 0.666626 4.07955 0.666626 5.00002V13.6667C0.666626 14.5872 1.41282 15.3334 2.33329 15.3334H11C11.9204 15.3334 12.6666 14.5872 12.6666 13.6667V12.6667ZM2.33329 4.66669C2.1492 4.66669 1.99996 4.81592 1.99996 5.00002V13.6667C1.99996 13.8508 2.1492 14 2.33329 14H11C11.1841 14 11.3333 13.8508 11.3333 13.6667V5.00002C11.3333 4.81592 11.1841 4.66669 11 4.66669H2.33329Z" fill="#696969"/>
</svg>
