<svg width="24" height="24" viewBox="0 0 24 24" fill="none" xmlns="http://www.w3.org/2000/svg">
<path d="M24 0H0V24H24V0Z" fill="white" fill-opacity="0.01"/>
<path d="M8.85548 22.9072C7.01238 22.3501 5.37178 21.3157 4.07272 19.9452C4.55734 19.3621 4.84939 18.6086 4.84939 17.7859C4.84939 15.9356 3.37193 14.4355 1.54939 14.4355C1.43914 14.4355 1.33015 14.441 1.22268 14.4517C1.07627 13.725 0.99939 12.9725 0.99939 12.2019C0.99939 11.0345 1.17581 9.9089 1.50307 8.85111C1.51849 8.85133 1.53392 8.85145 1.54939 8.85145C3.37193 8.85145 4.84939 7.3514 4.84939 5.50101C4.84939 4.9698 4.72762 4.46746 4.51092 4.02123C5.78302 2.82031 7.33567 1.92157 9.05805 1.4375C9.60381 2.52363 10.7161 3.26739 11.9994 3.26739C13.2827 3.26739 14.395 2.52363 14.9407 1.4375C16.6631 1.92157 18.2158 2.82031 19.4879 4.02123C19.2712 4.46746 19.1494 4.9698 19.1494 5.50101C19.1494 7.3514 20.6269 8.85145 22.4494 8.85145C22.4649 8.85145 22.4803 8.85133 22.4957 8.85111C22.823 9.9089 22.9994 11.0345 22.9994 12.2019C22.9994 12.9725 22.9225 13.725 22.7761 14.4517C22.6686 14.441 22.5597 14.4355 22.4494 14.4355C20.6269 14.4355 19.1494 15.9356 19.1494 17.7859C19.1494 18.6086 19.4415 19.3621 19.9261 19.9452C18.627 21.3157 16.9864 22.3501 15.1433 22.9072C14.7179 21.5562 13.4712 20.578 11.9994 20.578C10.5276 20.578 9.28085 21.5562 8.85548 22.9072Z" stroke="white" stroke-width="1.5" stroke-linejoin="round"/>
<path d="M12.0005 16.1103C14.1268 16.1103 15.8505 14.3602 15.8505 12.2014C15.8505 10.0426 14.1268 8.2926 12.0005 8.2926C9.87421 8.2926 8.15051 10.0426 8.15051 12.2014C8.15051 14.3602 9.87421 16.1103 12.0005 16.1103Z" stroke="white" stroke-width="1.5" stroke-linejoin="round"/>
</svg>
