<svg width="28" height="28" viewBox="0 0 28 28" fill="none" xmlns="http://www.w3.org/2000/svg">
<path d="M28 0H0V28H28V0Z" fill="white" fill-opacity="0.01"/>
<path d="M13.9998 6.77779C15.2207 6.77779 16.2104 5.7829 16.2104 4.55559C16.2104 3.3283 15.2207 2.33337 13.9998 2.33337C12.779 2.33337 11.7893 3.3283 11.7893 4.55559C11.7893 5.7829 12.779 6.77779 13.9998 6.77779Z" stroke="white" stroke-width="1.5" stroke-linejoin="round"/>
<path d="M5.71052 23.4446C6.93134 23.4446 7.92102 22.4497 7.92102 21.2224C7.92102 19.9951 6.93134 19.0001 5.71052 19.0001C4.48969 19.0001 3.5 19.9951 3.5 21.2224C3.5 22.4497 4.48969 23.4446 5.71052 23.4446Z" stroke="white" stroke-width="1.5" stroke-linejoin="round"/>
<path d="M22.2896 23.4446C23.5105 23.4446 24.5002 22.4497 24.5002 21.2224C24.5002 19.9951 23.5105 19.0001 22.2896 19.0001C21.0688 19.0001 20.0791 19.9951 20.0791 21.2224C20.0791 22.4497 21.0688 23.4446 22.2896 23.4446Z" stroke="white" stroke-width="1.5" stroke-linejoin="round"/>
<path d="M19.3331 6.0166C22.4256 7.85334 24.4999 11.2387 24.4999 15.1111C24.4999 15.4476 24.4843 15.7804 24.4536 16.1089" stroke="white" stroke-width="1.5" stroke-linecap="round" stroke-linejoin="round"/>
<path d="M18.0913 24.8353C16.834 25.3706 15.4513 25.6666 14 25.6666C12.5486 25.6666 11.1659 25.3706 9.90857 24.8353" stroke="white" stroke-width="1.5" stroke-linecap="round" stroke-linejoin="round"/>
<path d="M3.54629 16.1089C3.51566 15.7804 3.5 15.4476 3.5 15.1111C3.5 11.2387 5.57427 7.85334 8.66676 6.0166" stroke="white" stroke-width="1.5" stroke-linecap="round" stroke-linejoin="round"/>
</svg>
