<svg width="28" height="28" viewBox="0 0 28 28" fill="none" xmlns="http://www.w3.org/2000/svg">
<path fill-rule="evenodd" clip-rule="evenodd" d="M4.79171 13.9264V15.1957H3.2948V16.6304H25V15.1957H22.7546V10.4711L25 8.31892L23.8773 7.36586L22.7546 8.44195V3H18.2639V10.1351L16.0185 9.41769V5.15217H11.5278V9.59839L9.28244 10.5208V7.30435H4.79171V12.3655L3 13.1015L3.5896 14.4202L4.79171 13.9264ZM21.2577 4.43478H19.7608V10.6134L20.3071 10.7879L21.2577 9.87673V4.43478ZM20.7114 12.4295L19.7608 12.1258V15.1957H21.2577V11.9059L20.7114 12.4295ZM18.2639 11.6475L16.0185 10.9301V15.1957H18.2639V11.6475ZM14.5216 6.58696H13.0247V8.98349L13.74 8.68972L14.5216 8.93946V6.58696ZM13.8064 10.2234L13.0247 10.5444V15.1957H14.5216V10.4518L13.8064 10.2234ZM11.5278 11.1593L9.28244 12.0817V15.1957H11.5278V11.1593ZM7.78553 8.73913H6.28862V11.7506L7.78553 11.1357V8.73913ZM7.78553 12.6966L6.28862 13.3116V15.1957H7.78553V12.6966Z" fill="white"/>
<path d="M4.79171 20.6957H15.2701V22.1304H4.79171V20.6957Z" fill="white"/>
<path d="M4.79171 17.8261H15.2701V19.2609H4.79171V17.8261Z" fill="white"/>
<path d="M4.79171 23.5652H15.2701V25H4.79171V23.5652Z" fill="white"/>
<path d="M16.767 23.5652H19.0124V25H16.767V23.5652Z" fill="white"/>
<path d="M16.767 20.6957H19.0124V22.1304H16.767V20.6957Z" fill="white"/>
<path d="M16.767 17.8261H19.0124V19.2609H16.767V17.8261Z" fill="white"/>
<path d="M20.5093 17.8261H22.7546V19.2609H20.5093V17.8261Z" fill="white"/>
<path d="M20.5093 20.6957H22.7546V22.1304H20.5093V20.6957Z" fill="white"/>
<path d="M20.5093 23.5652H22.7546V25H20.5093V23.5652Z" fill="white"/>
<path d="M28 0H0V28H28V0Z" fill="white" fill-opacity="0.01"/>
</svg>
