<svg width="28" height="28" viewBox="0 0 28 28" fill="none" xmlns="http://www.w3.org/2000/svg">
<path d="M28 0H0V28H28V0Z" fill="white" fill-opacity="0.01"/>
<path d="M3.5 3.5V24.5H24.5" stroke="white" stroke-width="1.5" stroke-linecap="round" stroke-linejoin="round"/>
<path d="M7.53845 21.5384L23.6923 3.23071" stroke="white" stroke-width="1.5" stroke-linecap="round" stroke-linejoin="round"/>
<path d="M12.4231 7.53847C12.4231 7.85709 12.1648 8.11539 11.8462 8.11539C11.5276 8.11539 11.2693 7.85709 11.2693 7.53847C11.2693 7.21986 11.5276 6.96155 11.8462 6.96155C12.1648 6.96155 12.4231 7.21986 12.4231 7.53847Z" fill="white" stroke="white"/>
<path d="M17.8077 4.30764C17.8077 4.62626 17.5494 4.88456 17.2307 4.88456C16.9121 4.88456 16.6538 4.62626 16.6538 4.30764C16.6538 3.98901 16.9121 3.73071 17.2307 3.73071C17.5494 3.73071 17.8077 3.98901 17.8077 4.30764Z" fill="white" stroke="white"/>
<path d="M10.2692 12.9231C10.2692 13.2418 10.0109 13.5 9.69228 13.5C9.37364 13.5 9.11536 13.2418 9.11536 12.9231C9.11536 12.6045 9.37364 12.3462 9.69228 12.3462C10.0109 12.3462 10.2692 12.6045 10.2692 12.9231Z" fill="white" stroke="white"/>
<path d="M17.8077 16.1538C17.8077 16.4725 17.5494 16.7308 17.2307 16.7308C16.9121 16.7308 16.6538 16.4725 16.6538 16.1538C16.6538 15.8352 16.9121 15.5769 17.2307 15.5769C17.5494 15.5769 17.8077 15.8352 17.8077 16.1538Z" fill="white" stroke="white"/>
<path d="M22.1154 10.7692C22.1154 11.0878 21.8571 11.3461 21.5385 11.3461C21.2198 11.3461 20.9615 11.0878 20.9615 10.7692C20.9615 10.4505 21.2198 10.1923 21.5385 10.1923C21.8571 10.1923 22.1154 10.4505 22.1154 10.7692Z" fill="white" stroke="white"/>
</svg>
