<svg width="24" height="24" viewBox="0 0 24 24" fill="none" xmlns="http://www.w3.org/2000/svg">
<path d="M18.578 11.3355H16.752C16.0194 11.3369 15.314 11.0587 14.7799 10.5577L9.52828 5.63471H9.5281C8.74346 4.89608 7.70601 4.48578 6.62839 4.48792H4.80237C4.86443 4.71029 4.89509 4.94015 4.89367 5.1709C4.8951 5.4029 4.86442 5.63402 4.80237 5.85744H6.62839C7.35861 5.85637 8.06158 6.13473 8.59314 6.63527L13.8448 11.5582L13.8449 11.5584C14.6303 12.2956 15.6674 12.7057 16.7447 12.705H18.5707C18.5124 12.481 18.4853 12.2499 18.4903 12.0185C18.4895 11.7879 18.519 11.5584 18.578 11.3355Z" fill="white"/>
<path d="M12.8224 11.3462L11.7852 10.3783L11.7451 10.4587L10.5509 12.6901L11.588 13.6616L11.7451 13.3695L12.8224 11.3462Z" fill="white"/>
<path d="M8.30835 16.8975C8.10203 17.2861 7.79373 17.611 7.41675 17.8374C7.03977 18.0639 6.60805 18.1834 6.1683 18.183H4.79504C4.8571 18.4054 4.88777 18.6352 4.88634 18.866C4.88777 19.098 4.8571 19.3291 4.79504 19.5525H6.1683C6.85625 19.5536 7.53156 19.3671 8.12164 19.0131C8.71153 18.6593 9.19406 18.1515 9.51717 17.5439L10.3863 15.9151L9.35274 14.9401L8.30835 16.8975Z" fill="white"/>
<path d="M18.5778 4.48792H17.2046C16.5168 4.48775 15.8418 4.67463 15.252 5.02843C14.6621 5.38223 14.1796 5.88971 13.8557 6.49654L12.9866 8.12535L14.0237 9.09684L15.0646 7.14295C15.2709 6.75457 15.5792 6.42967 15.9562 6.20319C16.3332 5.97673 16.7649 5.85725 17.2046 5.85743H18.5814C18.5196 5.63399 18.4887 5.40289 18.4901 5.17089C18.4894 4.94032 18.5188 4.71084 18.5778 4.48792Z" fill="white"/>
<path d="M18.578 18.1829H16.752C16.0219 18.1826 15.3195 17.9044 14.7872 17.4051L11.745 14.5748L9.52827 12.4968H9.52809C8.74345 11.7581 7.706 11.3478 6.62838 11.35H4.80236C4.86049 11.5679 4.88884 11.7928 4.88634 12.0184C4.88777 12.2503 4.8571 12.4815 4.79504 12.7049H6.62106C7.35343 12.701 8.05923 12.9781 8.59312 13.4792L13.8447 18.4021H13.8449C14.6302 19.1395 15.6674 19.5496 16.7446 19.5489H18.5707C18.5086 19.3253 18.4779 19.0942 18.4794 18.8624C18.4824 18.6325 18.5156 18.4041 18.578 18.1829Z" fill="white"/>
<path d="M4.33861 5.17068C4.33897 4.61092 4.12302 4.07256 3.7357 3.66851C3.34839 3.26425 2.81987 3.02548 2.26065 3.00192C1.70125 2.97838 1.15454 3.17204 0.734735 3.54224C0.314788 3.91244 0.0542696 4.43064 0.00752356 4.98845C-0.0390171 5.54625 0.131638 6.10063 0.48416 6.5354C0.836705 6.97033 1.34367 7.25207 1.89914 7.32182C1.89878 7.32789 1.89878 7.33395 1.89914 7.34001V9.84901C1.89878 9.85507 1.89878 9.86113 1.89914 9.8672C1.19672 9.95903 0.583313 10.3877 0.25609 11.0159C-0.0711322 11.6442 -0.0711322 12.3924 0.25609 13.0206C0.583313 13.6489 1.19672 14.0775 1.89914 14.1694V16.6784V16.6782C1.16198 16.7707 0.523556 17.234 0.206879 17.9061C-0.109643 18.578 -0.060427 19.3653 0.337412 19.9927C0.735247 20.6198 1.4264 21 2.16932 21C2.91219 21 3.60338 20.6198 4.00123 19.9927C4.39906 19.3653 4.44828 18.578 4.13176 17.9061C3.81506 17.234 3.17666 16.7707 2.43968 16.6782V14.1876C3.14192 14.0959 3.75533 13.6671 4.08255 13.0388C4.40977 12.4108 4.40977 11.6624 4.08255 11.0341C3.75533 10.4061 3.14192 9.97722 2.43968 9.88555C2.44004 9.87949 2.44004 9.87325 2.43968 9.86718V7.34002C2.44004 7.33396 2.44004 7.32789 2.43968 7.32183C2.96375 7.25603 3.44595 7.00121 3.79563 6.60516C4.14514 6.20911 4.33828 5.69909 4.33865 5.17074L4.33861 5.17068Z" fill="white"/>
<path d="M23.373 12.0183C23.3726 11.4899 23.1795 10.9799 22.8299 10.5839C22.4803 10.1878 21.9981 9.93297 21.4739 9.86719C21.4743 9.86113 21.4743 9.85507 21.4739 9.849V7.34001C21.4743 7.33395 21.4743 7.32788 21.4739 7.32182C22.2111 7.22927 22.8495 6.76598 23.1662 6.09405C23.4827 5.42194 23.4335 4.63465 23.0356 4.00751C22.6378 3.38018 21.9466 3 21.2037 3C20.4608 3 19.7697 3.38018 19.3718 4.00751C18.974 4.63465 18.9248 5.42194 19.2413 6.09405C19.558 6.76598 20.1964 7.22924 20.9334 7.32182C20.933 7.32788 20.933 7.33395 20.9334 7.34001V9.849C20.933 9.85507 20.933 9.86113 20.9334 9.86719C20.2311 9.95903 19.6177 10.3877 19.2905 11.0159C18.9633 11.6442 18.9633 12.3924 19.2905 13.0206C19.6177 13.6489 20.2311 14.0775 20.9334 14.1694V16.6784V16.6782C20.1963 16.7707 19.558 17.234 19.2413 17.9061C18.9248 18.578 18.974 19.3653 19.3718 19.9926C19.7696 20.6198 20.4608 21 21.2037 21C21.9466 21 22.6378 20.6198 23.0356 19.9926C23.4335 19.3653 23.4827 18.578 23.1662 17.9061C22.8495 17.234 22.2111 16.7707 21.4739 16.6782V14.1876C22.0012 14.1214 22.4859 13.8639 22.8361 13.4641C23.1862 13.0641 23.3772 12.5497 23.373 12.0182L23.373 12.0183Z" fill="white"/>
</svg>
