<svg width="28" height="28" viewBox="0 0 28 28" fill="none" xmlns="http://www.w3.org/2000/svg">
<path d="M28 0H0V28H28V0Z" fill="white" fill-opacity="0.01"/>
<path d="M3.5 3.5V24.5H24.5" stroke="white" stroke-width="1.5" stroke-linecap="round" stroke-linejoin="round"/>
<path d="M5 19.7501C4.58579 19.7501 4.25 20.0859 4.25 20.5001C4.25 20.9143 4.58579 21.2501 5 21.2501V19.7501ZM11.2913 19.2547L11.0459 19.9635L12.4634 20.4541L12.7087 19.7454L11.2913 19.2547ZM17.2087 6.7454C17.3442 6.35398 17.1368 5.92683 16.7453 5.79133C16.3539 5.65584 15.9268 5.86331 15.7913 6.25474L17.2087 6.7454ZM24.5 7.25C24.9142 7.25003 25.25 6.91426 25.25 6.50005C25.25 6.08583 24.9143 5.75003 24.5 5.75L24.5 7.25ZM5.5 21.2501C5.91421 21.2501 6.25 20.9143 6.25 20.5001C6.25 20.0859 5.91421 19.7501 5.5 19.7501V21.2501ZM8.5 19.7501C8.08579 19.7501 7.75 20.0859 7.75 20.5001C7.75 20.9143 8.08579 21.2501 8.5 21.2501V19.7501ZM9.5 21.2501C9.91421 21.2501 10.25 20.9143 10.25 20.5001C10.25 20.0859 9.91421 19.7501 9.5 19.7501V21.2501ZM20.5 7.25005C20.9142 7.25005 21.25 6.91426 21.25 6.50005C21.25 6.08583 20.9142 5.75005 20.5 5.75005L20.5 7.25005ZM19.5 5.75005C19.0858 5.75005 18.75 6.08583 18.75 6.50005C18.75 6.91426 19.0858 7.25005 19.5 7.25005V5.75005ZM23.5 5.74998C23.0858 5.74998 22.75 6.08577 22.75 6.49998C22.75 6.91419 23.0858 7.24998 23.5 7.24998L23.5 5.74998ZM12.7087 19.7454L17.2087 6.7454L15.7913 6.25474L11.2913 19.2547L12.7087 19.7454ZM5 21.2501H5.5V19.7501H5V21.2501ZM8.5 21.2501H9.5V19.7501H8.5V21.2501ZM19.5 7.25005C20.1491 7.25005 19.8426 7.25005 20.5 7.25005L20.5 5.75005C19.8426 5.75005 20.1491 5.75005 19.5 5.75005L19.5 7.25005ZM20.5 5.75005H19.5V7.25005H20.5V5.75005ZM23.5 7.24998C23.804 7.24998 24.054 7.24998 24.228 7.24999C24.315 7.24999 24.383 7.24999 24.4292 7.25C24.4523 7.25 24.47 7.25 24.4819 7.25C24.4879 7.25 24.4924 7.25 24.4954 7.25C24.4969 7.25 24.4981 7.25 24.4988 7.25C24.4992 7.25 24.4995 7.25 24.4997 7.25C24.4998 7.25 24.4998 7.25 24.4999 7.25C24.4999 7.25 24.4999 7.25 24.4999 7.25C24.4999 7.25 24.4999 7.25 24.4999 7.25C24.5 7.25 24.5 7.25 24.5 6.5C24.5 5.75 24.5 5.75 24.5 5.75C24.5 5.75 24.5 5.75 24.5 5.75C24.5 5.75 24.5 5.75 24.5 5.75C24.4999 5.75 24.4999 5.75 24.4998 5.75C24.4996 5.75 24.4993 5.75 24.4989 5.75C24.4981 5.75 24.497 5.75 24.4955 5.75C24.4925 5.75 24.488 5.75 24.482 5.75C24.4701 5.75 24.4524 5.75 24.4293 5.75C24.3831 5.74999 24.3151 5.74999 24.2281 5.74999C24.0541 5.74998 23.8041 5.74998 23.5 5.74998L23.5 7.24998Z" fill="white"/>
<circle cx="7" cy="20.5" r="1" stroke="white"/>
<circle cx="16" cy="20.5" r="1" stroke="white"/>
<circle cx="22" cy="20.5" r="1" stroke="white"/>
<circle cx="13" cy="6.5" r="1" stroke="white"/>
<circle cx="22" cy="6.5" r="1" stroke="white"/>
<circle cx="18" cy="6.5" r="1" stroke="white"/>
<circle cx="11" cy="20.5" r="1" stroke="white"/>
</svg>
