<svg width="28" height="28" viewBox="0 0 28 28" fill="none" xmlns="http://www.w3.org/2000/svg">
<path d="M28 0H0V28H28V0Z" fill="white" fill-opacity="0.01"/>
<path d="M21.1125 5.02669C21.0375 4.96808 21 4.92622 21 4.9011C21 4.86761 21.0161 4.80063 21.0482 4.70016C21.0804 4.59969 21.1072 4.54108 21.1286 4.52433C21.1501 4.48247 21.1983 4.46154 21.2733 4.46154C21.3483 4.46154 21.6217 4.45735 22.0932 4.44898H22.9453L23.2508 3.44427C23.283 3.35217 23.3205 3.23077 23.3633 3.08006C23.4062 2.92936 23.4437 2.82051 23.4759 2.75353C23.508 2.68655 23.5402 2.60283 23.5723 2.50235C23.6045 2.40188 23.6474 2.33072 23.701 2.28885C23.7546 2.24699 23.8081 2.19676 23.8617 2.13815C23.9153 2.07954 23.9904 2.04186 24.0868 2.02512C24.1833 2.00837 24.2797 2 24.3762 2C24.5691 2.00837 24.7031 2.05442 24.7781 2.13815C24.8532 2.22187 24.8907 2.30141 24.8907 2.37677C24.8907 2.43537 24.8424 2.63213 24.746 2.96703C24.6495 3.30194 24.5423 3.63265 24.4244 3.95918L24.2637 4.42386C24.2637 4.44061 24.5316 4.44898 25.0675 4.44898H25.8875C25.9625 4.50759 26 4.55364 26 4.58713C26 4.77132 25.9303 4.91784 25.791 5.02669H24.0707L23.492 6.84772C23.074 8.18734 22.865 8.90738 22.865 9.00785C22.865 9.3595 23.0096 9.53532 23.299 9.53532C23.6742 9.53532 24.0386 9.39299 24.3923 9.10832C24.746 8.82365 25.03 8.472 25.2444 8.05338C25.2658 8.00314 25.2926 7.97384 25.3248 7.96546C25.3569 7.95709 25.4373 7.94872 25.5659 7.94035H25.6302C25.791 7.94035 25.8714 7.97384 25.8714 8.04082C25.8714 8.06593 25.8553 8.11617 25.8232 8.19152C25.7696 8.32548 25.6731 8.48456 25.5338 8.66876C25.3944 8.85296 25.2122 9.04971 24.9871 9.25903C24.7621 9.46834 24.4887 9.64417 24.1672 9.7865C23.8457 9.92883 23.5188 10 23.1865 10C22.865 10 22.5595 9.93721 22.2701 9.81162C21.9807 9.68603 21.7717 9.46834 21.6431 9.15856C21.6217 9.09158 21.6109 8.97855 21.6109 8.81947V8.59341L22.1736 6.83516C22.5488 5.65463 22.7417 5.06018 22.7524 5.05181C22.7524 5.03506 22.4791 5.02669 21.9325 5.02669H21.1125Z" fill="white"/>
<path d="M3 25H25" stroke="white" stroke-width="1.5" stroke-linecap="round" stroke-linejoin="round"/>
<path d="M3 22.8889C5.04651 22.3737 5.55814 20.7886 6.06977 19.2823C6.39618 18.3212 6.71631 17.4123 7.0309 16.5556M25 22.8889C23.4651 22.3736 22.8188 20.3127 22.4419 19.2823C22.0903 18.3212 21.7464 17.4123 21.4093 16.5556M7.0309 16.5556V25M7.0309 16.5556C12.1951 2.49122 15.869 2.47175 21.4093 16.5556M21.4093 16.5556V25" stroke="white" stroke-width="1.5" stroke-linecap="round"/>
</svg>
