<svg width="32" height="32" viewBox="0 0 32 32" fill="none" xmlns="http://www.w3.org/2000/svg">
<path d="M22 16H10V18H22V16Z" fill="white"/>
<path d="M18 20H10V22H18V20Z" fill="white"/>
<path d="M16 7C17.8605 7.0026 19.6623 7.65171 21.097 8.83625C22.5317 10.0208 23.5102 11.6671 23.8649 13.4935L24.124 14.8395L25.4728 15.0835C26.8244 15.3272 28.0361 16.0676 28.8696 17.1592C29.703 18.2507 30.0981 19.6146 29.9772 20.9827C29.8562 22.3508 29.2279 23.6241 28.2159 24.5525C27.2038 25.481 25.881 25.9973 24.5076 26H7.49541C6.12163 25.9983 4.79818 25.4828 3.78527 24.5547C2.77237 23.6266 2.14331 22.3532 2.02178 20.9848C1.90025 19.6164 2.29505 18.2521 3.12855 17.16C3.96204 16.068 5.17393 15.3272 6.52591 15.0835L7.87471 14.8395L8.13381 13.4935C8.48901 11.6671 9.46776 10.0208 10.9026 8.83636C12.3375 7.65187 14.1394 7.00274 16 7V7ZM16 5C13.6745 5.00255 11.4222 5.81353 9.62894 7.29406C7.83562 8.77459 6.61284 10.8326 6.17001 13.1155C4.32695 13.4482 2.67497 14.4582 1.5388 15.947C0.402619 17.4359 -0.135575 19.2958 0.0300014 21.1613C0.195578 23.0269 1.05295 24.763 2.43359 26.0284C3.81423 27.2939 5.61827 27.9972 7.49111 28H24.5076C26.3805 27.9972 28.1845 27.294 29.5652 26.0285C30.9459 24.7631 31.8033 23.027 31.9689 21.1614C32.1345 19.2959 31.5963 17.4359 30.4602 15.9471C29.324 14.4582 27.672 13.4482 25.8289 13.1155C25.386 10.8306 24.1617 8.77114 22.3662 7.29035C20.5706 5.80956 18.3157 4.9998 15.9883 5H16Z" fill="white"/>
</svg>
