<svg width="29" height="28" viewBox="0 0 29 28" fill="none" xmlns="http://www.w3.org/2000/svg">
<path d="M28 0H0V28H28V0Z" fill="white" fill-opacity="0.01"/>
<path d="M28 24L21.9714 18.4242C19.9811 20.5631 17.0888 21.9091 13.8696 21.9091C7.86647 21.9091 3 17.2284 3 11.4545C3 5.68066 7.86647 1 13.8696 1C19.8727 1 24.7154 5.68066 24.7154 11.4545V12.1515L16.7681 12.0325M12.3373 7C12.3373 8.34724 11.2018 9.43939 9.80108 9.43939C8.40036 9.43939 7.26485 8.34724 7.26485 7C7.26485 5.65276 8.40036 4.56061 9.80108 4.56061C11.2018 4.56061 12.3373 5.65276 12.3373 7ZM12.3373 7H19.3043V12.0705M16.7681 12.0325C16.7681 13.1873 15.7948 14.1234 14.5942 14.1234C13.3936 14.1234 12.4203 13.1873 12.4203 12.0325C12.4203 10.8778 13.3936 9.94163 14.5942 9.94163C15.7948 9.94163 16.7681 10.8778 16.7681 12.0325ZM14.5942 17.7273C14.5942 18.882 13.6209 19.8182 12.4203 19.8182C11.2197 19.8182 10.2464 18.882 10.2464 17.7273C10.2464 16.5725 11.2197 15.6364 12.4203 15.6364C13.6209 15.6364 14.5942 16.5725 14.5942 17.7273ZM14.5942 17.7273H18.942V15.6364" stroke="white" stroke-width="1.5" stroke-linecap="round" stroke-linejoin="round"/>
</svg>
