<svg width="15" height="15" viewBox="0 0 15 15" fill="none" xmlns="http://www.w3.org/2000/svg">
<g id="remix-icons/outlined/editor/bold">
<g id="Group">
<path id="Vector" d="M5 6.875H7.8125C8.2269 6.875 8.62433 6.71038 8.91735 6.41735C9.21038 6.12433 9.375 5.7269 9.375 5.3125C9.375 4.8981 9.21038 4.50067 8.91735 4.20765C8.62433 3.91462 8.2269 3.75 7.8125 3.75H5V6.875ZM11.25 9.6875C11.25 10.0568 11.1773 10.4226 11.0359 10.7638C10.8946 11.105 10.6874 11.4151 10.4262 11.6762C10.1651 11.9374 9.85503 12.1446 9.5138 12.2859C9.17257 12.4272 8.80684 12.5 8.4375 12.5H3.75V2.5H7.8125C8.3631 2.50002 8.90158 2.66166 9.36117 2.96486C9.82076 3.26806 10.1813 3.6995 10.3979 4.20567C10.6146 4.71184 10.678 5.27047 10.5801 5.81231C10.4823 6.35414 10.2275 6.85534 9.8475 7.25375C10.2742 7.50081 10.6283 7.85573 10.8745 8.2829C11.1207 8.71007 11.2502 9.19447 11.25 9.6875ZM5 8.125V11.25H8.4375C8.8519 11.25 9.24933 11.0854 9.54235 10.7924C9.83538 10.4993 10 10.1019 10 9.6875C10 9.2731 9.83538 8.87567 9.54235 8.58264C9.24933 8.28962 8.8519 8.125 8.4375 8.125H5Z" fill="#828282"/>
</g>
</g>
</svg>
