<svg width="17" height="17" viewBox="0 0 17 17" fill="none" xmlns="http://www.w3.org/2000/svg">
<g id="arrow / circle_chevron_right">
<path id="arrow / circle_chevron_right_2" d="M8.49996 15.5834C4.58972 15.5791 1.42092 12.4103 1.41663 8.50009V8.35843C1.49449 4.4658 4.69946 1.36573 8.59252 1.41738C12.4856 1.46904 15.6072 4.65306 15.5817 8.54638C15.5563 12.4397 12.3934 15.5826 8.49996 15.5834ZM8.49996 2.83343C5.37035 2.83343 2.83329 5.37048 2.83329 8.50009C2.83329 11.6297 5.37035 14.1668 8.49996 14.1668C11.6296 14.1668 14.1666 11.6297 14.1666 8.50009C14.1631 5.37194 11.6281 2.83694 8.49996 2.83343ZM7.47288 12.0418L6.47129 11.0395L8.97525 8.53551L6.47129 6.03155L7.47288 5.02926L10.9791 8.53551L7.47358 12.0418H7.47288Z" fill="#828282"/>
</g>
</svg>
