<svg width="17" height="17" viewBox="0 0 17 17" fill="none" xmlns="http://www.w3.org/2000/svg">
<g id="arrow / circle_chevron_right">
<path id="arrow / circle_chevron_right_2" d="M8.50002 15.5834C4.58978 15.5791 1.42098 12.4103 1.41669 8.50009V8.35843C1.49456 4.4658 4.69952 1.36573 8.59258 1.41738C12.4856 1.46904 15.6072 4.65306 15.5818 8.54638C15.5563 12.4397 12.3934 15.5826 8.50002 15.5834ZM8.50002 2.83343C5.37041 2.83343 2.83335 5.37048 2.83335 8.50009C2.83335 11.6297 5.37041 14.1668 8.50002 14.1668C11.6296 14.1668 14.1667 11.6297 14.1667 8.50009C14.1632 5.37194 11.6282 2.83694 8.50002 2.83343ZM7.47294 12.0418L6.47135 11.0395L8.97531 8.53551L6.47135 6.03155L7.47294 5.02926L10.9792 8.53551L7.47364 12.0418H7.47294Z" fill="#C4C4C4"/>
</g>
</svg>
