<svg width="17" height="17" viewBox="0 0 17 17" fill="none" xmlns="http://www.w3.org/2000/svg">
<g id="remix-icons/outlined/system/more-2-line">
<g id="Group">
<path id="Vector" d="M8.5 2.125C7.91563 2.125 7.4375 2.60313 7.4375 3.1875C7.4375 3.77187 7.91563 4.25 8.5 4.25C9.08437 4.25 9.5625 3.77187 9.5625 3.1875C9.5625 2.60313 9.08437 2.125 8.5 2.125ZM8.5 12.75C7.91563 12.75 7.4375 13.2281 7.4375 13.8125C7.4375 14.3969 7.91563 14.875 8.5 14.875C9.08437 14.875 9.5625 14.3969 9.5625 13.8125C9.5625 13.2281 9.08437 12.75 8.5 12.75ZM8.5 7.4375C7.91563 7.4375 7.4375 7.91562 7.4375 8.5C7.4375 9.08437 7.91563 9.5625 8.5 9.5625C9.08437 9.5625 9.5625 9.08437 9.5625 8.5C9.5625 7.91562 9.08437 7.4375 8.5 7.4375Z" fill="#828282"/>
</g>
</g>
</svg>
