<svg width="15" height="15" viewBox="0 0 15 15" fill="none" xmlns="http://www.w3.org/2000/svg">
<g id="edit / edit">
<path id="edit / edit_2" d="M2.7625 12.8619C2.58717 12.8616 2.42004 12.7877 2.30187 12.6582C2.18152 12.5297 2.12172 12.356 2.1375 12.1807L2.29062 10.4969L9.36437 3.42566L11.575 5.63566L4.50312 12.7063L2.81937 12.8594C2.8 12.8613 2.78062 12.8619 2.7625 12.8619ZM12.0162 5.19378L9.80625 2.98378L11.1319 1.65816C11.2491 1.5408 11.4082 1.47485 11.5741 1.47485C11.7399 1.47485 11.899 1.5408 12.0162 1.65816L13.3419 2.98378C13.4592 3.10101 13.5252 3.26009 13.5252 3.42597C13.5252 3.59185 13.4592 3.75093 13.3419 3.86816L12.0169 5.19316L12.0162 5.19378Z" fill="#828282"/>
</g>
</svg>
