<svg width="17" height="17" viewBox="0 0 17 17" fill="none" xmlns="http://www.w3.org/2000/svg">
<g id="file / file_blank_outline">
<path id="file / file_blank_outline_2" d="M12.7499 15.5833H4.24992C3.46752 15.5833 2.83325 14.9491 2.83325 14.1667V2.83332C2.83325 2.05092 3.46752 1.41666 4.24992 1.41666H9.20825C9.21597 1.41699 9.2236 1.41842 9.23092 1.42091C9.23784 1.42304 9.24496 1.42447 9.25217 1.42516C9.31463 1.42916 9.37631 1.44131 9.43563 1.46128L9.45546 1.46766C9.47151 1.4731 9.48714 1.47973 9.50221 1.48749C9.57938 1.52179 9.64969 1.56979 9.70975 1.62916L13.9598 5.87916C14.0191 5.93921 14.0671 6.00953 14.1014 6.0867C14.1085 6.10228 14.1135 6.11857 14.1191 6.13487L14.1255 6.15328C14.1453 6.21235 14.157 6.27383 14.1602 6.33603C14.1613 6.34254 14.163 6.34894 14.1652 6.35516C14.1664 6.36169 14.1669 6.36835 14.1667 6.37499V14.1667C14.1667 14.9491 13.5323 15.5833 12.7499 15.5833ZM4.24992 2.83332V14.1667H12.7499V7.08332H9.20825C8.81705 7.08332 8.49992 6.76619 8.49992 6.37499V2.83332H4.24992ZM9.91658 3.83491V5.66666H11.7483L9.91658 3.83491Z" fill="#828282"/>
</g>
</svg>
