<svg width="17" height="17" viewBox="0 0 17 17" fill="none" xmlns="http://www.w3.org/2000/svg">
<g id="file / folder_open">
<path id="file / folder_open_2" d="M12.7501 14.1667H2.12508C1.93708 14.1686 1.75629 14.0944 1.62381 13.961C1.49134 13.8276 1.41844 13.6463 1.42171 13.4583H1.41675V3.54167C1.41675 2.75926 2.05101 2.125 2.83341 2.125H7.08341C7.24163 2.12515 7.39523 2.17827 7.51975 2.27587L9.13758 3.54167H12.7501C13.5325 3.54167 14.1667 4.17593 14.1667 4.95833V7.79167H14.8751C15.1132 7.79169 15.3353 7.91134 15.4664 8.11013C15.5974 8.30891 15.6199 8.56024 15.526 8.77908L13.401 13.7374C13.2894 13.9978 13.0334 14.1667 12.7501 14.1667ZM4.71758 9.20833L3.19962 12.75H12.2833L13.8012 9.20833H4.71758ZM2.83341 4.95833V10.0087L3.59912 8.22092C3.71074 7.96053 3.96678 7.7917 4.25008 7.79167H12.7501V4.95833H2.83341Z" fill="#828282"/>
</g>
</svg>
