<svg width="16px" height="16px" viewBox="0 0 16 16" fill="none" xmlns="http://www.w3.org/2000/svg">
    <defs></defs>
    <g id="remix-icons/outlined/editor/link-m" transform="matrix(1, 0, 0, 1, -3.968015, -3.093214)">
      <g id="Group">
        <path id="Vector" d="M13.3076 15.0151L13.3076 13.708L14.6147 13.708C14.9581 13.708 15.2981 13.6404 15.6153 13.5089C15.9326 13.3775 16.2208 13.1849 16.4636 12.9421C16.7064 12.6993 16.899 12.4111 17.0304 12.0939C17.1618 11.7766 17.2295 11.4366 17.2295 11.0932C17.2295 10.7499 17.1618 10.4098 17.0304 10.0926C16.899 9.77537 16.7064 9.48712 16.4636 9.24432C16.2208 9.00152 15.9326 8.80892 15.6153 8.67751C15.2981 8.54611 14.9581 8.47848 14.6147 8.47847L13.3076 8.47848L13.3076 7.17133L14.6147 7.17133C15.6493 7.17975 16.6387 7.59667 17.3673 8.33125C18.096 9.06584 18.5048 10.0586 18.5048 11.0932C18.5048 12.1279 18.096 13.1206 17.3673 13.8552C16.6387 14.5898 15.6493 15.0067 14.6147 15.0151L13.3076 15.0151ZM10.6924 15.0151L9.3852 15.0151C8.86748 15.0193 8.35405 14.921 7.87453 14.7258C7.395 14.5306 6.95887 14.2424 6.59128 13.8778C6.2237 13.5132 5.93194 13.0794 5.73284 12.6015C5.53374 12.1236 5.43123 11.611 5.43123 11.0932C5.43123 10.5755 5.53374 10.0629 5.73284 9.58496C5.93194 9.10704 6.2237 8.67327 6.59128 8.30866C6.95887 7.94406 7.395 7.65585 7.87453 7.46065C8.35405 7.26544 8.86748 7.16711 9.3852 7.17133L10.6923 7.17133V8.47847H9.3852C9.04183 8.47847 8.70182 8.54611 8.38458 8.67751C8.06734 8.80891 7.77909 9.00152 7.53629 9.24432C7.29349 9.48712 7.10089 9.77537 6.96948 10.0926C6.83808 10.4098 6.77045 10.7499 6.77045 11.0932C6.77045 11.4366 6.83808 11.7766 6.96948 12.0939C7.10089 12.4111 7.29349 12.6993 7.53629 12.9421C7.77909 13.1849 8.06734 13.3775 8.38458 13.5089C8.70182 13.6404 9.04183 13.708 9.3852 13.708L10.6923 13.708L10.6924 15.0151ZM15.2683 10.4392L15.2683 11.7473L8.73209 11.7468L8.73163 10.4392L15.2678 10.4397L15.2683 10.4392Z" fill="#828282"></path>
      </g>
    </g>
  </svg>