<svg width="14" height="14" viewBox="0 0 14 14" fill="none" xmlns="http://www.w3.org/2000/svg">
<g id="remix-icons/outlined/editor/list-ordered">
<g id="Group">
<path id="Vector" d="M4.66667 2.33333H12.25V3.5H4.66667V2.33333ZM2.91667 1.75V3.5H3.5V4.08333H1.75V3.5H2.33333V2.33333H1.75V1.75H2.91667ZM1.75 8.16667V6.70833H2.91667V6.41667H1.75V5.83333H3.5V7.29167H2.33333V7.58333H3.5V8.16667H1.75ZM2.91667 11.375H1.75V10.7917H2.91667V10.5H1.75V9.91667H3.5V12.25H1.75V11.6667H2.91667V11.375ZM4.66667 6.41667H12.25V7.58333H4.66667V6.41667ZM4.66667 10.5H12.25V11.6667H4.66667V10.5Z" fill="#828282"/>
</g>
</g>
</svg>
