<svg width="13" height="13" viewBox="0 0 13 13" fill="none" xmlns="http://www.w3.org/2000/svg">
<g id="remix-icons/filled/media/play-mini-fill">
<g id="Group">
<path id="Vector" d="M10.0539 4.19908L6.73349 9.89092C6.70961 9.93171 6.67547 9.96554 6.63447 9.98905C6.59347 10.0126 6.54703 10.0249 6.49976 10.0249C6.4525 10.0249 6.40605 10.0126 6.36505 9.98905C6.32405 9.96554 6.28991 9.93171 6.26603 9.89092L2.94562 4.19908C2.92155 4.15784 2.90882 4.11098 2.9087 4.06323C2.90859 4.01549 2.9211 3.96856 2.94496 3.9272C2.96883 3.88585 3.0032 3.85154 3.0446 3.82775C3.086 3.80397 3.13295 3.79154 3.1807 3.79175L9.81991 3.79175C9.86756 3.79174 9.91438 3.8043 9.95562 3.82816C9.99687 3.85203 10.0311 3.88635 10.0548 3.92768C10.0786 3.969 10.091 4.01585 10.0908 4.0635C10.0907 4.11116 10.0779 4.15792 10.0539 4.19908Z" fill="#C4C4C4"/>
</g>
</g>
</svg>
