<svg width="17" height="17" viewBox="0 0 17 17" fill="none" xmlns="http://www.w3.org/2000/svg">
<g id="redo">
<path id="shape" d="M14.8751 7.79156C14.6872 7.79156 14.5071 7.86619 14.3742 7.99903C14.2414 8.13187 14.1667 8.31204 14.1667 8.4999C14.1752 9.82663 13.7207 11.1148 12.8816 12.1425C12.0425 13.1702 10.8712 13.8731 9.56964 14.1302C8.26803 14.3872 6.91751 14.1824 5.75069 13.5509C4.58387 12.9194 3.67379 11.9007 3.17719 10.6704C2.68059 9.4401 2.62856 8.07512 3.03006 6.81058C3.43157 5.54603 4.26147 4.46108 5.37683 3.74257C6.49219 3.02407 7.8232 2.717 9.1406 2.87425C10.458 3.0315 11.6793 3.64322 12.5943 4.60406H10.8943C10.7064 4.60406 10.5262 4.67869 10.3934 4.81153C10.2605 4.94437 10.1859 5.12454 10.1859 5.3124C10.1859 5.50026 10.2605 5.68043 10.3934 5.81326C10.5262 5.9461 10.7064 6.02073 10.8943 6.02073H14.103C14.2909 6.02073 14.471 5.9461 14.6039 5.81326C14.7367 5.68043 14.8113 5.50026 14.8113 5.3124V2.1249C14.8113 1.93704 14.7367 1.75687 14.6039 1.62403C14.471 1.49119 14.2909 1.41656 14.103 1.41656C13.9151 1.41656 13.735 1.49119 13.6021 1.62403C13.4693 1.75687 13.3947 1.93704 13.3947 2.1249V3.37865C12.2151 2.25102 10.6823 1.56528 9.05543 1.43734C7.42858 1.3094 5.80745 1.7471 4.46607 2.67647C3.12469 3.60584 2.14535 4.96985 1.69359 6.53795C1.24183 8.10605 1.34536 9.78203 1.98668 11.2826C2.628 12.7832 3.76778 14.0163 5.21334 14.7735C6.65891 15.5307 8.32158 15.7656 9.92032 15.4384C11.5191 15.1112 12.9558 14.242 13.9876 12.9777C15.0195 11.7135 15.5832 10.1318 15.5834 8.4999C15.5834 8.31204 15.5088 8.13187 15.376 7.99903C15.2431 7.86619 15.0629 7.79156 14.8751 7.79156Z" fill="#C4C4C4"/>
</g>
</svg>
