<svg width="18" height="19" viewBox="0 0 18 19" fill="none" xmlns="http://www.w3.org/2000/svg">
<path d="M18 0.641357H0V18.6414H18V0.641357Z" fill="white" fill-opacity="0.01"/>
<path d="M15.5625 9.64137C15.5625 5.91344 12.5404 2.89136 8.81251 2.89136C7.89731 2.89136 7.02465 3.0735 6.2288 3.40351C5.81789 3.57389 5.42747 3.7837 5.06223 4.0282C4.69413 4.27463 4.35162 4.5563 4.03953 4.86839C3.72744 5.18048 3.44577 5.52299 3.19935 5.89109M2.0625 9.64137C2.0625 13.3693 5.08458 16.3914 8.81251 16.3914C9.72771 16.3914 10.6004 16.2092 11.3962 15.8792C11.8071 15.7088 12.1975 15.499 12.5628 15.2545C12.9309 15.0081 13.2734 14.7264 13.5855 14.4143C13.8976 14.1023 14.1792 13.7597 14.4257 13.3916" stroke="#C4C4C4" stroke-width="1.5" stroke-linecap="round" stroke-linejoin="round"/>
<path d="M15.5625 3.64136V9.64137" stroke="#C4C4C4" stroke-width="1.5" stroke-linecap="round" stroke-linejoin="round"/>
<path d="M2.0625 9.64111L2.0625 15.6411" stroke="#C4C4C4" stroke-width="1.5" stroke-linecap="round" stroke-linejoin="round"/>
</svg>
