<svg width="17" height="17" viewBox="0 0 17 17" fill="none" xmlns="http://www.w3.org/2000/svg">
<g id="edit / search">
<path id="edit / search_2" d="M13.2295 13.8883L9.18136 9.83942C7.38054 11.1197 4.89909 10.8065 3.47281 9.11899C2.04654 7.43145 2.15127 4.9325 3.71374 3.37021C5.2758 1.80723 7.77499 1.70205 9.46285 3.12825C11.1507 4.55445 11.464 7.03615 10.1837 8.83713L14.2318 12.886L13.2302 13.8875L13.2295 13.8883ZM6.71849 3.54161C5.37528 3.54131 4.21643 4.48419 3.94357 5.79939C3.67071 7.1146 4.35882 8.44065 5.5913 8.97471C6.82378 9.50877 8.26187 9.10405 9.03491 8.00558C9.80795 6.90711 9.70345 5.41681 8.7847 4.43696L9.21324 4.86196L8.73015 4.38029L8.72165 4.37179C8.19167 3.83854 7.47031 3.53959 6.71849 3.54161Z" fill="#828282"/>
</g>
</svg>
