<svg width="15" height="15" viewBox="0 0 15 15" fill="none" xmlns="http://www.w3.org/2000/svg">
<g id="basic / trash_full">
<path id="basic / trash_full_2" d="M10.625 13.75H4.375C3.68464 13.75 3.125 13.1904 3.125 12.5V4.375H1.875V3.125H4.375V2.5C4.375 1.80964 4.93464 1.25 5.625 1.25H9.375C10.0654 1.25 10.625 1.80964 10.625 2.5V3.125H13.125V4.375H11.875V12.5C11.875 13.1904 11.3154 13.75 10.625 13.75ZM4.375 4.375V12.5H10.625V4.375H4.375ZM5.625 2.5V3.125H9.375V2.5H5.625ZM9.375 11.25H8.125V5.625H9.375V11.25ZM6.875 11.25H5.625V5.625H6.875V11.25Z" fill="#828282"/>
</g>
</svg>
