<svg width="16" height="16" viewBox="0 0 16 16" fill="none" xmlns="http://www.w3.org/2000/svg">
<path fill-rule="evenodd" clip-rule="evenodd" d="M4.99984 2.00008C4.81573 2.00008 4.6665 2.14931 4.6665 2.33341V3.33341H10.9998C11.9203 3.33341 12.6665 4.07961 12.6665 5.00008V11.3334H13.6665C13.8506 11.3334 13.9998 11.1842 13.9998 11.0001V2.33341C13.9998 2.14931 13.8506 2.00008 13.6665 2.00008H4.99984ZM12.6665 12.6667H13.6665C14.587 12.6667 15.3332 11.9206 15.3332 11.0001V2.33341C15.3332 1.41295 14.587 0.666748 13.6665 0.666748H4.99984C4.07934 0.666748 3.33317 1.41295 3.33317 2.33341V3.33341H2.33317C1.4127 3.33341 0.666504 4.07961 0.666504 5.00008V13.6667C0.666504 14.5872 1.4127 15.3334 2.33317 15.3334H10.9998C11.9203 15.3334 12.6665 14.5872 12.6665 13.6667V12.6667ZM2.33317 4.66675C2.14908 4.66675 1.99984 4.81599 1.99984 5.00008V13.6667C1.99984 13.8508 2.14908 14.0001 2.33317 14.0001H10.9998C11.1839 14.0001 11.3332 13.8508 11.3332 13.6667V5.00008C11.3332 4.81599 11.1839 4.66675 10.9998 4.66675H2.33317Z" fill="#C4C4C4"/>
</svg>
