<svg width="24" height="24" viewBox="0 0 24 24" fill="none" xmlns="http://www.w3.org/2000/svg">
<path d="M24 0H0V24H24V0Z" fill="white" fill-opacity="0.01"/>
<path d="M2 7V2.5C2 2.22386 2.22386 2 2.5 2H9.5C9.77615 2 10 2.22386 10 2.5V21.5C10 21.7761 9.77615 22 9.5 22H2.5C2.22386 22 2 21.7761 2 21.5V17" stroke="white" stroke-width="1.5" stroke-linecap="round"/>
<path d="M22 17V21.5C22 21.7761 21.7761 22 21.5 22H14.5C14.2239 22 14 21.7761 14 21.5V2.5C14 2.22386 14.2239 2 14.5 2H21.5C21.7761 2 22 2.22386 22 2.5V7" stroke="white" stroke-width="1.5" stroke-linecap="round"/>
<path d="M14 12L22 12.0066" stroke="white" stroke-width="1.5" stroke-linecap="round"/>
<path d="M2 12.0066L10 12" stroke="white" stroke-width="1.5" stroke-linecap="round"/>
<path d="M19.6138 14.3889L20.4093 13.5934L22.0003 12.0024L20.4093 10.4114L19.6138 9.61597" stroke="white" stroke-width="1.5" stroke-linecap="round" stroke-linejoin="round"/>
<path d="M4.3777 14.3931L3.5822 13.5976L1.99121 12.0066L3.5822 10.4156L4.3777 9.62012" stroke="white" stroke-width="1.5" stroke-linecap="round" stroke-linejoin="round"/>
</svg>
