<svg width="26" height="26" viewBox="0 0 26 26" fill="none" xmlns="http://www.w3.org/2000/svg">
<path d="M26 0H0V26H26V0Z" fill="white" fill-opacity="0.01"/>
<path d="M13 22.1782C14.15 23.2075 15.6686 23.8333 17.3333 23.8333C20.9232 23.8333 23.8333 20.9232 23.8333 17.3333C23.8333 14.3046 21.7618 11.7597 18.9583 11.0381" stroke="white" stroke-width="1.5" stroke-linejoin="round"/>
<path d="M7.0415 11.0381C4.23801 11.7597 2.1665 14.3046 2.1665 17.3333C2.1665 20.9232 5.07665 23.8333 8.6665 23.8333C12.2563 23.8333 15.1665 20.9232 15.1665 17.3333C15.1665 16.494 15.0074 15.6919 14.7178 14.9554" stroke="white" stroke-width="1.5" stroke-linejoin="round"/>
<path d="M13 15.1667C16.5898 15.1667 19.5 12.2566 19.5 8.66675C19.5 5.0769 16.5898 2.16675 13 2.16675C9.41016 2.16675 6.5 5.0769 6.5 8.66675C6.5 12.2566 9.41016 15.1667 13 15.1667Z" stroke="white" stroke-width="1.5" stroke-linejoin="round"/>
</svg>
