<svg width="30" height="30" viewBox="0 0 30 30" fill="none" xmlns="http://www.w3.org/2000/svg">
<path d="M30 0H0V30H30V0Z" fill="white" fill-opacity="0.01"/>
<path d="M21.2499 14.3751C24.3565 14.3751 26.8749 11.8567 26.8749 8.75012C26.8749 5.64352 24.3565 3.12512 21.2499 3.12512C18.1433 3.12512 15.6249 5.64352 15.6249 8.75012C15.6249 11.8567 18.1433 14.3751 21.2499 14.3751Z" stroke="white" stroke-width="1.5" stroke-linecap="round" stroke-linejoin="round"/>
<path d="M7.50012 20C9.91637 20 11.8751 18.0412 11.8751 15.625C11.8751 13.2088 9.91637 11.25 7.50012 11.25C5.08388 11.25 3.12512 13.2088 3.12512 15.625C3.12512 18.0412 5.08388 20 7.50012 20Z" stroke="white" stroke-width="1.5" stroke-linecap="round" stroke-linejoin="round"/>
<path d="M18.125 26.2501C19.8509 26.2501 21.25 24.851 21.25 23.1251C21.25 21.3992 19.8509 20.0001 18.125 20.0001C16.3991 20.0001 15 21.3992 15 23.1251C15 24.851 16.3991 26.2501 18.125 26.2501Z" stroke="white" stroke-width="1.5" stroke-linecap="round" stroke-linejoin="round"/>
</svg>
