<svg width="16" height="16" viewBox="0 0 16 16" fill="none" xmlns="http://www.w3.org/2000/svg">
<path d="M6.6665 6.00008C7.03469 6.00008 7.33317 6.29856 7.33317 6.66675V11.0001C7.33317 11.3683 7.03469 11.6667 6.6665 11.6667C6.29831 11.6667 5.99984 11.3683 5.99984 11.0001V6.66675C5.99984 6.29856 6.29831 6.00008 6.6665 6.00008Z" fill="#C4C4C4"/>
<path d="M9.99984 6.66675C9.99984 6.29856 9.70136 6.00008 9.33317 6.00008C8.96498 6.00008 8.6665 6.29856 8.6665 6.66675V11.0001C8.6665 11.3683 8.96498 11.6667 9.33317 11.6667C9.70136 11.6667 9.99984 11.3683 9.99984 11.0001V6.66675Z" fill="#C4C4C4"/>
<path fill-rule="evenodd" clip-rule="evenodd" d="M6.4295 0.666748C6.18604 0.666748 5.96194 0.799467 5.84491 1.01296L4.93835 2.66675H1.33317C0.964981 2.66675 0.666504 2.96522 0.666504 3.33341C0.666504 3.7016 0.964981 4.00008 1.33317 4.00008H2.33317V14.6667C2.33317 15.0349 2.63165 15.3334 2.99984 15.3334H12.9998C13.368 15.3334 13.6665 15.0349 13.6665 14.6667V4.00008H14.6665C15.0347 4.00008 15.3332 3.7016 15.3332 3.33341C15.3332 2.96522 15.0347 2.66675 14.6665 2.66675H11.0652L10.1795 1.01795C10.0633 0.801673 9.8377 0.666748 9.5922 0.666748H6.4295ZM9.55165 2.66675L9.19355 2.00008H6.82432L6.45887 2.66675H9.55165ZM3.6665 4.00008V14.0001H12.3332V4.00008H3.6665Z" fill="#C4C4C4"/>
</svg>
