<svg width="16" height="16" viewBox="0 0 16 16" fill="none" xmlns="http://www.w3.org/2000/svg">
<path d="M6.66663 6.00002C7.03482 6.00002 7.33329 6.2985 7.33329 6.66669V11C7.33329 11.3682 7.03482 11.6667 6.66663 11.6667C6.29844 11.6667 5.99996 11.3682 5.99996 11V6.66669C5.99996 6.2985 6.29844 6.00002 6.66663 6.00002Z" fill="#696969"/>
<path d="M9.99996 6.66669C9.99996 6.2985 9.70148 6.00002 9.33329 6.00002C8.9651 6.00002 8.66662 6.2985 8.66662 6.66669V11C8.66662 11.3682 8.9651 11.6667 9.33329 11.6667C9.70148 11.6667 9.99996 11.3682 9.99996 11V6.66669Z" fill="#696969"/>
<path fill-rule="evenodd" clip-rule="evenodd" d="M6.42962 0.666687C6.18616 0.666687 5.96206 0.799406 5.84503 1.0129L4.93848 2.66669H1.33329C0.965103 2.66669 0.666626 2.96516 0.666626 3.33335C0.666626 3.70154 0.965103 4.00002 1.33329 4.00002H2.33329V14.6667C2.33329 15.0349 2.63177 15.3334 2.99996 15.3334H13C13.3681 15.3334 13.6666 15.0349 13.6666 14.6667V4.00002H14.6666C15.0348 4.00002 15.3333 3.70154 15.3333 3.33335C15.3333 2.96516 15.0348 2.66669 14.6666 2.66669H11.0653L10.1796 1.01788C10.0635 0.801612 9.83782 0.666687 9.59232 0.666687H6.42962ZM9.55177 2.66669L9.19367 2.00002H6.82444L6.459 2.66669H9.55177ZM3.66663 4.00002V14H12.3333V4.00002H3.66663Z" fill="#696969"/>
</svg>
