<svg width="14" height="14" viewBox="0 0 14 14" fill="none" xmlns="http://www.w3.org/2000/svg">
<g id="remix-icons/outlined/media/image-line">
<g id="Group">
<path id="Vector" d="M2.81629 12.25L2.80463 12.2617L2.79238 12.25H1.74529C1.59177 12.2498 1.44458 12.1887 1.33608 12.0801C1.22757 11.9715 1.16663 11.8243 1.16663 11.6707V2.32925C1.16769 2.17605 1.22898 2.02943 1.33726 1.92104C1.44553 1.81266 1.5921 1.75122 1.74529 1.75H12.2546C12.5743 1.75 12.8333 2.00958 12.8333 2.32925V11.6707C12.8322 11.8239 12.7709 11.9706 12.6627 12.079C12.5544 12.1873 12.4078 12.2488 12.2546 12.25H2.81629ZM11.6666 8.75V2.91667H2.33329V11.0833L8.16663 5.25L11.6666 8.75ZM11.6666 10.3997L8.16663 6.89967L3.98296 11.0833H11.6666V10.3997ZM4.66663 6.41667C4.35721 6.41667 4.06046 6.29375 3.84167 6.07496C3.62288 5.85616 3.49996 5.55942 3.49996 5.25C3.49996 4.94058 3.62288 4.64383 3.84167 4.42504C4.06046 4.20625 4.35721 4.08333 4.66663 4.08333C4.97605 4.08333 5.27279 4.20625 5.49158 4.42504C5.71038 4.64383 5.83329 4.94058 5.83329 5.25C5.83329 5.55942 5.71038 5.85616 5.49158 6.07496C5.27279 6.29375 4.97605 6.41667 4.66663 6.41667Z" fill="#828282"/>
</g>
</g>
</svg>
