<svg width="14" height="14" viewBox="0 0 14 14" fill="none" xmlns="http://www.w3.org/2000/svg">
<g id="remix-icons/outlined/editor/list-unordered">
<g id="Group">
<path id="Vector" d="M4.66667 2.33341H12.25V3.50008H4.66667V2.33341ZM2.625 3.79175C2.39294 3.79175 2.17038 3.69956 2.00628 3.53547C1.84219 3.37137 1.75 3.14881 1.75 2.91675C1.75 2.68468 1.84219 2.46212 2.00628 2.29803C2.17038 2.13394 2.39294 2.04175 2.625 2.04175C2.85706 2.04175 3.07962 2.13394 3.24372 2.29803C3.40781 2.46212 3.5 2.68468 3.5 2.91675C3.5 3.14881 3.40781 3.37137 3.24372 3.53547C3.07962 3.69956 2.85706 3.79175 2.625 3.79175ZM2.625 7.87508C2.39294 7.87508 2.17038 7.78289 2.00628 7.6188C1.84219 7.45471 1.75 7.23215 1.75 7.00008C1.75 6.76802 1.84219 6.54546 2.00628 6.38136C2.17038 6.21727 2.39294 6.12508 2.625 6.12508C2.85706 6.12508 3.07962 6.21727 3.24372 6.38136C3.40781 6.54546 3.5 6.76802 3.5 7.00008C3.5 7.23215 3.40781 7.45471 3.24372 7.6188C3.07962 7.78289 2.85706 7.87508 2.625 7.87508ZM2.625 11.9001C2.39294 11.9001 2.17038 11.8079 2.00628 11.6438C1.84219 11.4797 1.75 11.2571 1.75 11.0251C1.75 10.793 1.84219 10.5705 2.00628 10.4064C2.17038 10.2423 2.39294 10.1501 2.625 10.1501C2.85706 10.1501 3.07962 10.2423 3.24372 10.4064C3.40781 10.5705 3.5 10.793 3.5 11.0251C3.5 11.2571 3.40781 11.4797 3.24372 11.6438C3.07962 11.8079 2.85706 11.9001 2.625 11.9001ZM4.66667 6.41675H12.25V7.58342H4.66667V6.41675ZM4.66667 10.5001H12.25V11.6667H4.66667V10.5001Z" fill="#828282"/>
</g>
</g>
</svg>
