<svg width="16" height="15" viewBox="0 0 16 15" fill="none" xmlns="http://www.w3.org/2000/svg">
<path fill-rule="evenodd" clip-rule="evenodd" d="M5.60209 0C4.79454 0 4.13989 0.65465 4.13989 1.4622V3.89868H5.43989V1.4622C5.43989 1.37262 5.51251 1.3 5.60209 1.3H13.7241C13.8137 1.3 13.8863 1.37261 13.8863 1.4622V9.58419C13.8863 9.67378 13.8137 9.74639 13.7241 9.74639H10.7462V11.0464H13.7241C14.5316 11.0464 15.1863 10.3918 15.1863 9.58419V1.4622C15.1863 0.654657 14.5317 0 13.7241 0H5.60209Z" fill="#C4C4C4"/>
<path d="M9.93419 3.89868H1.8122C1.36364 3.89868 1 4.26232 1 4.71088V12.8329C1 13.2814 1.36364 13.6451 1.8122 13.6451H9.93419C10.3828 13.6451 10.7464 13.2814 10.7464 12.8329V4.71088C10.7464 4.26232 10.3828 3.89868 9.93419 3.89868Z" stroke="#C4C4C4" stroke-width="1.4"/>
</svg>
