<svg width="22" height="22" viewBox="0 0 22 22" fill="none" xmlns="http://www.w3.org/2000/svg">
<path d="M1.75502 16.6003L5.86789 12.3248L9.33993 8.71548L12.7338 5.18739L16.5376 1.23321L20.9061 5.43557L17.1023 9.38975L13.7085 12.9178L10.1864 16.5792L6.12356 20.8027L1.75502 16.6003Z" fill="#FFCF73"/>
<path d="M5.86789 12.3248L1.75502 16.6003L6.12356 20.8027L10.1864 16.5792M5.86789 12.3248L10.1864 16.5792M5.86789 12.3248L9.33993 8.71548M10.1864 16.5792L13.7085 12.9178M9.33993 8.71548L13.7085 12.9178M9.33993 8.71548L12.7338 5.18739M13.7085 12.9178L17.1023 9.38975M12.7338 5.18739L16.5376 1.23321L20.9061 5.43557L17.1023 9.38975M12.7338 5.18739L17.1023 9.38975" stroke="#696969" stroke-width="1.5"/>
</svg>
