<svg width="22" height="22" viewBox="0 0 22 22" fill="none" xmlns="http://www.w3.org/2000/svg">
<path d="M22 0H0V22H22V0Z" fill="white" fill-opacity="0.01"/>
<path d="M14.2816 21L14.0592 21.7163C14.2497 21.7754 14.4558 21.7563 14.6321 21.6631C14.8084 21.5699 14.9403 21.4104 14.9987 21.2198L14.2816 21ZM12.0098 19.5547L11.4267 19.083C11.1926 19.3724 11.2062 19.7897 11.4586 20.0633L12.0098 19.5547ZM10.6561 16.8741L9.92009 17.0185C9.99469 17.3989 10.3469 17.6597 10.7325 17.6202L10.6561 16.8741ZM10.7893 14.1413L10.8004 13.3914C10.4654 13.3864 10.1677 13.6042 10.0711 13.925L10.7893 14.1413ZM12.218 11.7845L11.6958 11.2461C11.4654 11.4696 11.4027 11.8149 11.5399 12.1051L12.218 11.7845ZM14.3779 10.5238L15.0516 10.1943C14.8916 9.86714 14.5197 9.70223 14.1698 9.80324L14.3779 10.5238ZM17.1721 10.5238L17.3802 9.80324C17.0303 9.70223 16.6584 9.86714 16.4984 10.1943L17.1721 10.5238ZM19.332 11.7845L20.0101 12.1051C20.1473 11.8149 20.0846 11.4696 19.8542 11.2461L19.332 11.7845ZM20.7607 14.1413L21.4789 13.925C21.3823 13.6042 21.0846 13.3864 20.7496 13.3914L20.7607 14.1413ZM20.8939 16.8741L20.8175 17.6202C21.2031 17.6597 21.5553 17.3989 21.6299 17.0185L20.8939 16.8741ZM19.5402 19.5547L20.0914 20.0633C20.3438 19.7897 20.3574 19.3724 20.1233 19.083L19.5402 19.5547ZM17.2684 21L16.5513 21.2198C16.6097 21.4104 16.7416 21.5699 16.9179 21.6631C17.0942 21.7563 17.3003 21.7754 17.4908 21.7163L17.2684 21ZM16.9507 14.9544L17.5695 14.5306L16.9507 14.9544ZM14.3522 15.8416L15.1011 15.8005L14.3522 15.8416ZM18.35 4.80952C18.35 5.09212 18.2246 5.4174 17.8842 5.776C17.54 6.13851 17.0067 6.49907 16.2905 6.81819C14.8599 7.45561 12.831 7.86905 10.55 7.86905V9.36905C12.9911 9.36905 15.2371 8.9297 16.901 8.18834C17.732 7.81807 18.4509 7.35774 18.972 6.80872C19.4969 6.2558 19.85 5.5789 19.85 4.80952H18.35ZM10.55 7.86905C8.26903 7.86905 6.24008 7.45561 4.80948 6.81819C4.09326 6.49907 3.55997 6.13851 3.21584 5.776C2.87542 5.4174 2.75 5.09212 2.75 4.80952H1.25C1.25 5.5789 1.60307 6.2558 2.12796 6.80872C2.64914 7.35774 3.36797 7.81807 4.199 8.18834C5.86288 8.9297 8.10894 9.36905 10.55 9.36905V7.86905ZM2.75 4.80952C2.75 4.52693 2.87542 4.20165 3.21584 3.84304C3.55997 3.48053 4.09326 3.11998 4.80948 2.80086C6.24008 2.16344 8.26903 1.75 10.55 1.75V0.25C8.10894 0.25 5.86288 0.68935 4.199 1.43071C3.36797 1.80098 2.64914 2.26131 2.12796 2.81033C1.60307 3.36325 1.25 4.04015 1.25 4.80952H2.75ZM10.55 1.75C12.831 1.75 14.8599 2.16344 16.2905 2.80086C17.0067 3.11998 17.54 3.48053 17.8842 3.84304C18.2246 4.20165 18.35 4.52693 18.35 4.80952H19.85C19.85 4.04015 19.4969 3.36325 18.972 2.81033C18.4509 2.26131 17.732 1.80098 16.901 1.43071C15.2371 0.68935 12.9911 0.25 10.55 0.25V1.75ZM10.55 11.6786C8.26903 11.6786 6.24008 11.2651 4.80948 10.6277C4.09326 10.3086 3.55997 9.94804 3.21584 9.58553C2.87542 9.22692 2.75 8.90164 2.75 8.61905H1.25C1.25 9.38842 1.60307 10.0653 2.12796 10.6182C2.64914 11.1673 3.36797 11.6276 4.199 11.9979C5.86288 12.7392 8.10894 13.1786 10.55 13.1786V11.6786ZM10.55 15.4881C8.26903 15.4881 6.24008 15.0747 4.80948 14.4372C4.09326 14.1181 3.55997 13.7576 3.21584 13.3951C2.87542 13.0364 2.75 12.7112 2.75 12.4286H1.25C1.25 13.1979 1.60307 13.8748 2.12796 14.4278C2.64914 14.9768 3.36797 15.4371 4.199 15.8074C5.86288 16.5487 8.10894 16.9881 10.55 16.9881V15.4881ZM1.25 4.80952V8.61905H2.75V4.80952H1.25ZM2.75 12.4286V8.61905H1.25V12.4286H2.75ZM18.35 4.80952V8.61905H19.85V4.80952H18.35ZM10.55 19.2976C8.26903 19.2976 6.24008 18.8842 4.80948 18.2468C4.09326 17.9276 3.55997 17.5671 3.21584 17.2046C2.87542 16.846 2.75 16.5207 2.75 16.2381H1.25C1.25 17.0075 1.60307 17.6844 2.12796 18.2373C2.64914 18.7863 3.36797 19.2466 4.199 19.6169C5.86288 20.3583 8.10894 20.7976 10.55 20.7976V19.2976ZM1.25 12.4286V16.2381H2.75V12.4286H1.25ZM12.5929 20.0264C12.9291 19.6108 13.1288 19.0773 13.1288 18.5011H11.6288C11.6288 18.7277 11.5509 18.9295 11.4267 19.083L12.5929 20.0264ZM13.1288 18.5011C13.1288 17.214 12.1206 16.1162 10.8112 16.1162V17.6162C11.2333 17.6162 11.6288 17.9823 11.6288 18.5011H13.1288ZM10.8112 16.1162C10.7334 16.1162 10.6561 16.1202 10.5796 16.128L10.7325 17.6202C10.7581 17.6176 10.7844 17.6162 10.8112 17.6162V16.1162ZM11.392 16.7298C11.3318 16.4225 11.3 16.1037 11.3 15.7763H9.8C9.8 16.201 9.84125 16.6165 9.92009 17.0185L11.392 16.7298ZM11.3 15.7763C11.3 15.2805 11.3729 14.8041 11.5074 14.3576L10.0711 13.925C9.8947 14.5108 9.8 15.1328 9.8 15.7763H11.3ZM10.7781 14.8912C10.7891 14.8914 10.8002 14.8915 10.8112 14.8915V13.3915C10.8076 13.3915 10.804 13.3914 10.8004 13.3914L10.7781 14.8912ZM10.8112 14.8915C12.1206 14.8915 13.1288 13.7937 13.1288 12.5066H11.6288C11.6288 13.0253 11.2333 13.3915 10.8112 13.3915V14.8915ZM12.7401 12.3229C13.2598 11.819 13.8906 11.4451 14.5859 11.2444L14.1698 9.80324C13.2289 10.0749 12.3847 10.5781 11.6958 11.2461L12.7401 12.3229ZM13.7041 10.8534C14.0787 11.6191 14.8558 12.1667 15.775 12.1667V10.6667C15.4751 10.6667 15.1955 10.4884 15.0516 10.1943L13.7041 10.8534ZM15.775 12.1667C16.6942 12.1667 17.4713 11.6191 17.8459 10.8534L16.4984 10.1943C16.3545 10.4884 16.0749 10.6667 15.775 10.6667V12.1667ZM18.654 11.464C18.5043 11.7806 18.4213 12.135 18.4213 12.5066H19.9213C19.9213 12.3598 19.9539 12.224 20.0101 12.1051L18.654 11.464ZM18.4213 12.5066C18.4213 13.7937 19.4294 14.8915 20.7388 14.8915V13.3915C20.3167 13.3915 19.9213 13.0253 19.9213 12.5066H18.4213ZM20.7388 14.8915C20.7498 14.8915 20.7609 14.8914 20.7719 14.8912L20.7496 13.3914C20.746 13.3914 20.7424 13.3915 20.7388 13.3915V14.8915ZM20.0426 14.3576C20.1771 14.8041 20.25 15.2805 20.25 15.7763H21.75C21.75 15.1328 21.6553 14.5108 21.4789 13.925L20.0426 14.3576ZM20.25 15.7763C20.25 16.1037 20.2182 16.4225 20.158 16.7298L21.6299 17.0185C21.7087 16.6165 21.75 16.201 21.75 15.7763H20.25ZM20.9704 16.128C20.8939 16.1202 20.8166 16.1162 20.7388 16.1162V17.6162C20.7656 17.6162 20.7918 17.6176 20.8175 17.6202L20.9704 16.128ZM20.7388 16.1162C19.4294 16.1162 18.4213 17.214 18.4213 18.5011H19.9213C19.9213 17.9823 20.3167 17.6162 20.7388 17.6162V16.1162ZM18.4213 18.5011C18.4213 19.0773 18.6209 19.6108 18.9571 20.0264L20.1233 19.083C19.9991 18.9295 19.9213 18.7277 19.9213 18.5011H18.4213ZM18.989 19.0461C18.4575 19.622 17.7902 20.0526 17.0459 20.2837L17.4908 21.7163C18.4974 21.4037 19.3887 20.8249 20.0914 20.0633L18.989 19.0461ZM17.9854 20.7802C17.6949 19.8323 16.8305 19.1135 15.775 19.1135V20.6135C16.1177 20.6135 16.4377 20.8492 16.5513 21.2198L17.9854 20.7802ZM15.775 19.1135C14.7195 19.1135 13.8551 19.8323 13.5646 20.7802L14.9987 21.2198C15.1123 20.8492 15.4323 20.6135 15.775 20.6135V19.1135ZM15.775 17.9405C16.978 17.9405 17.95 16.9633 17.95 15.7619H16.45C16.45 16.1384 16.146 16.4405 15.775 16.4405V17.9405ZM15.775 13.5833C14.572 13.5833 13.6 14.5605 13.6 15.7619H15.1C15.1 15.3854 15.404 15.0833 15.775 15.0833V13.5833ZM13.1288 12.5066C13.1288 12.4271 13.1249 12.3483 13.1175 12.2704L11.6243 12.4136C11.6272 12.4439 11.6288 12.475 11.6288 12.5066H13.1288ZM13.1175 12.2704C13.0901 11.9847 13.0135 11.7126 12.896 11.464L11.5399 12.1051C11.5842 12.1987 11.6137 12.3025 11.6243 12.4136L13.1175 12.2704ZM12.2988 11.5955C11.7362 11.6498 11.1511 11.6786 10.55 11.6786V13.1786C11.1987 13.1786 11.832 13.1476 12.443 13.0885L12.2988 11.5955ZM18.35 8.61905C18.35 9.0297 18.0731 9.5497 17.2793 10.0878L18.121 11.3294C19.0972 10.6676 19.85 9.7516 19.85 8.61905H18.35ZM16.9641 11.2444C17.1173 11.2886 17.2672 11.3412 17.4135 11.4017L17.9868 10.0156C17.7896 9.93402 17.5872 9.86301 17.3802 9.80324L16.9641 11.2444ZM17.4135 11.4017C17.8489 11.5818 18.2523 11.8321 18.6105 12.1407L19.5895 11.0042C19.1134 10.5941 18.5737 10.2583 17.9868 10.0156L17.4135 11.4017ZM18.6105 12.1407C18.6787 12.1994 18.7451 12.2602 18.8099 12.3229L19.8542 11.2461C19.7683 11.1629 19.68 11.0822 19.5895 11.0042L18.6105 12.1407ZM19.85 12.4286V11.5724H18.35V12.4286H19.85ZM19.85 11.5724V8.61905H18.35V11.5724H19.85ZM14.5041 20.2837C13.917 20.1014 13.378 19.7951 12.9155 19.3912L11.9287 20.5209C12.5431 21.0576 13.2654 21.4698 14.0592 21.7163L14.5041 20.2837ZM12.9155 19.3912C12.7916 19.283 12.6733 19.1678 12.561 19.0461L11.4586 20.0633C11.6072 20.2243 11.7641 20.3771 11.9287 20.5209L12.9155 19.3912ZM12.3478 19.2097C11.7703 19.2672 11.1686 19.2976 10.55 19.2976V20.7976C11.2176 20.7976 11.8689 20.7648 12.4964 20.7023L12.3478 19.2097ZM17.95 15.7619C17.95 15.3063 17.8096 14.8813 17.5695 14.5306L16.3318 15.3781C16.4063 15.4869 16.45 15.6181 16.45 15.7619H17.95ZM17.5695 14.5306C17.1791 13.9606 16.5214 13.5833 15.775 13.5833V15.0833C16.0047 15.0833 16.2085 15.1981 16.3318 15.3781L17.5695 14.5306ZM13.6 15.7619C13.6 15.8024 13.6011 15.8427 13.6033 15.8827L15.1011 15.8005C15.1004 15.7878 15.1 15.7749 15.1 15.7619H13.6ZM13.6033 15.8827C13.6662 17.0284 14.6126 17.9405 15.775 17.9405V16.4405C15.4168 16.4405 15.1207 16.1586 15.1011 15.8005L13.6033 15.8827Z" fill="#F6AD55"/>
</svg>
