<svg id="Layer_1" data-name="Layer 1" xmlns="http://www.w3.org/2000/svg" viewBox="0 0 260.052 46"><defs><style>.cls-1{fill:#e56139;}.cls-2{fill:#f9b52a;}.cls-3{fill:#f9c400;}.cls-4{fill:#eb773c;}.cls-5{fill:#ef8f3c;}.cls-6{fill:#f5a631;}.cls-7{fill:#646464;}</style></defs><title>VisualPython_Logo 복사본</title><rect class="cls-1" y="38.333" width="46" height="7.667"/><rect class="cls-2" y="7.667" width="46" height="7.667"/><rect class="cls-3" width="46" height="7.667"/><rect class="cls-4" y="30.667" width="46" height="7.667"/><rect class="cls-5" y="23" width="46" height="7.667"/><rect class="cls-6" y="15.333" width="46" height="7.667"/><path class="cls-7" d="M181.434,88.98v.576h-2.466v.065a1.871,1.871,0,0,1,.993,1.184l5.988,17.518a3.494,3.494,0,0,1,.256,1.12v.032h.257v-.032a3.82,3.82,0,0,1,.32-1.217l5.924-16.972a3.341,3.341,0,0,0,.224-.961c0-.544-.416-.737-1.568-.737h-1.249V88.98h5.7v.576h-.385c-1.153,0-1.377.257-1.857,1.7L186.4,112.165l-1.473.128-7.206-21.039c-.512-1.473-.736-1.7-1.889-1.7h-.48V88.98Z" transform="translate(-114.042 -77.499)"/><path class="cls-7" d="M201.9,97.082v.257a16.763,16.763,0,0,0-.161,1.7v10.7c0,1.537.193,1.7,1.73,1.7h1.12v.578h-7.941v-.578h1.12c1.538,0,1.7-.159,1.7-1.7V99.484c0-1.537-.16-1.7-1.7-1.7h-.576V97.21Zm.16-5.668a1.336,1.336,0,0,1-1.409,1.441,1.361,1.361,0,0,1-1.441-1.441,1.336,1.336,0,0,1,1.441-1.409A1.312,1.312,0,0,1,202.058,91.414Z" transform="translate(-114.042 -77.499)"/><path class="cls-7" d="M211.953,112.581a8.588,8.588,0,0,1-4.515-1.441,1.3,1.3,0,0,1-.449-.64l-.127.064a2.491,2.491,0,0,1,.191.9l.064,1.088-.576.031-.288-5h.864c.065,2.177,2.434,4.131,4.836,4.131,2.466,0,3.811-.929,3.811-2.69,0-3.2-8.647-4.259-8.647-8.838,0-2.114,1.922-3.523,4.836-3.523a5.764,5.764,0,0,1,3.523.993,1.521,1.521,0,0,1,.48.672h.1a7.542,7.542,0,0,1-.1-.928l-.064-.737.577-.032.255,4.515-.832.064-.032-.48a3.647,3.647,0,0,0-3.907-3.234c-1.921,0-2.978.7-2.978,1.985,0,3.554,8.935,4.643,8.935,9.127C217.91,110.98,215.54,112.581,211.953,112.581Z" transform="translate(-114.042 -77.499)"/><path class="cls-7" d="M231.713,112.293v-.256c.064-.64.127-1.249.127-1.825v-.833a1.9,1.9,0,0,1,.193-1.025v-.064h-.193a6.1,6.1,0,0,1-5.7,4.291c-3.139,0-4.8-1.7-4.8-4.835V99.484c0-1.537-.192-1.7-1.73-1.7h-.544V97.21l4.676-.128v.257a16.337,16.337,0,0,0-.128,1.7v8.134c0,2.978.96,4.547,2.817,4.547,3.235,0,5.412-3.106,5.412-7.526V99.484c0-1.537-.16-1.7-1.7-1.7h-.576V97.21l4.708-.128v.257a16.48,16.48,0,0,0-.161,1.7v10.7c0,1.537.192,1.7,1.729,1.7h.545v.578Z" transform="translate(-114.042 -77.499)"/><path class="cls-7" d="M250.286,109.732c0,1.28.1,1.633,1.057,1.633.192,0,.385-.033.642-.033l.544-.031.031.575-4.195.417v-.256c0-1.441-.224-1.921-.255-3.042h-.128a5.581,5.581,0,0,1-5.061,3.586c-2.913,0-4.868-1.6-4.868-3.97,0-3.01,3.2-5.412,7.975-5.412a13.113,13.113,0,0,1,1.985.16v-1.6c0-2.786-1.217-4.259-3.523-4.259-2.209,0-3.2.736-3.875,2.593v.257h-.544V98.075a6.676,6.676,0,0,1,4.388-1.409c3.778,0,5.827,1.857,5.827,5.38Zm-2.273-4.964v-.641a10.99,10.99,0,0,0-1.826-.192c-3.649,0-5.635,1.666-5.635,4.676,0,2.017.833,3.106,2.369,3.106C246,111.717,248.013,108.931,248.013,104.768Z" transform="translate(-114.042 -77.499)"/><path class="cls-7" d="M253.682,111.428h1.12a1.508,1.508,0,0,0,1.7-1.7V90.389c0-1.537-.16-1.7-1.7-1.7h-.576v-.576l4.708-.128v.224c-.064.64-.161,1.153-.161,1.729v19.791a1.531,1.531,0,0,0,1.73,1.7h1.12v.578h-7.941Z" transform="translate(-114.042 -77.499)"/><path class="cls-7" d="M271.263,111.428h1.121c1.537,0,1.7-.159,1.7-1.7V91.254c0-1.537-.16-1.7-1.7-1.7h-1.121V88.98h10.088c5.188,0,8.678,3.074,8.678,7.686s-3.49,7.654-8.678,7.654h-5v5.412c0,1.537.192,1.7,1.729,1.7h1.121v.578h-7.942Zm4.547-21.551a2.223,2.223,0,0,1,.545,1.665v11.945h4.42c4.354,0,6.692-2.4,6.692-6.821s-2.338-6.821-6.692-6.821h-5.124Z" transform="translate(-114.042 -77.499)"/><path class="cls-7" d="M296.851,97.21v.577h-2.274v.064a2.044,2.044,0,0,1,.993,1.217l3.746,9.543a4.108,4.108,0,0,1,.225,1.345v.064l.224-.064,4.1-10.472a3.418,3.418,0,0,0,.256-.929c0-.544-.448-.768-1.6-.768h-1.185V97.21h5.732v.577h-.416c-1.153,0-1.312.288-1.858,1.7l-6.564,16.652c-1.217,3.138-2.979,3.843-4.484,3.843a8.355,8.355,0,0,1-2.561-.545l.32-1.376a9.427,9.427,0,0,0,2.562.48c1.345,0,2.562-.64,3.33-2.626l1.025-2.594a1.1,1.1,0,0,0,.064-.48,2.645,2.645,0,0,0-.16-.962l-4.9-12.392c-.608-1.537-.7-1.7-1.857-1.7h-.417V97.21Z" transform="translate(-114.042 -77.499)"/><path class="cls-7" d="M312.991,108.867c0,1.857.833,2.85,2.306,2.85,2.05,0,3.395-1.217,3.395-3.106h.864c0,2.369-1.7,3.97-4.259,3.97a4.327,4.327,0,0,1-4.579-4.547V98.075H307.9V97.21h1.985c1.12,0,1.473-.576,1.7-1.7l.576-2.85.833-.545v4.068c0,.672-.16.864-.416.992v.032h6.981v.865h-6.565Z" transform="translate(-114.042 -77.499)"/><path class="cls-7" d="M320.965,111.428h1.121c1.538,0,1.7-.159,1.7-1.7V90.389c0-1.537-.159-1.7-1.7-1.7h-.577v-.576l4.708-.288v.255c-.063.641-.16,1.282-.16,1.858v9.927a1.844,1.844,0,0,1-.16.993v.1h.16a6.1,6.1,0,0,1,5.7-4.291c3.139,0,4.836,1.7,4.836,4.836v8.23c0,1.537.161,1.7,1.7,1.7h.864v.578h-6.98v-.578h2.433v-.063c-.224-.225-.288-.32-.288-.833v-8.486c0-2.978-.961-4.547-2.817-4.547-3.235,0-5.445,3.01-5.445,7.525v4.708c0,1.537.193,1.7,1.729,1.7h1.121v.578h-7.942Z" transform="translate(-114.042 -77.499)"/><path class="cls-7" d="M347.386,96.666c4.1,0,6.821,3.17,6.821,7.942s-2.722,7.973-6.821,7.973-6.853-3.2-6.853-7.973S343.287,96.666,347.386,96.666Zm-.128.833c-2.755,0-4.228,2.113-4.228,5.988,0,5.348,1.569,8.23,4.452,8.23,2.754,0,4.227-2.081,4.227-5.956C351.709,100.413,350.14,97.5,347.258,97.5Z" transform="translate(-114.042 -77.499)"/><path class="cls-7" d="M355.905,111.428h1.121c1.537,0,1.7-.159,1.7-1.7V99.484c0-1.537-.16-1.7-1.7-1.7h-.577V97.21l4.708-.256v.224c-.065.641-.161,1.281-.161,1.858v.832a2.437,2.437,0,0,1-.159.993v.1H361a6.106,6.106,0,0,1,5.7-4.291c3.139,0,4.836,1.7,4.836,4.836v8.23c0,1.537.159,1.7,1.7,1.7h.864v.578h-6.98v-.578h2.433v-.063c-.224-.225-.288-.32-.288-.833v-8.486c0-2.978-.961-4.547-2.819-4.547-3.234,0-5.444,3.106-5.444,7.525v4.708c0,1.537.193,1.7,1.73,1.7h1.12v.578h-7.941Z" transform="translate(-114.042 -77.499)"/></svg>