<!-- <svg width="15" height="15" viewBox="0 0 15 15" fill="none" xmlns="http://www.w3.org/2000/svg">
    <defs></defs>
    <path d="M10.1075 6.87498L6.755 3.52248L7.63875 2.63873L12.5 7.49998L7.63875 12.3612L6.755 11.4775L10.1075 8.12498H2.5V6.87498H10.1075Z" fill="#828282"></path>
    <path fill="#828282" style="" d="M 7.018 6.875 L 6.18 6.037 L 5.342 5.199 L 4.503 4.361 L 3.665 3.523 L 3.886 3.302 L 4.107 3.081 L 4.328 2.86 L 4.549 2.639 L 5.764 3.855 L 6.98 5.07 L 8.195 6.285 L 9.41 7.5 L 8.195 8.716 L 6.98 9.931 L 5.764 11.146 L 4.549 12.361 L 4.328 12.141 L 4.107 11.92 L 3.886 11.699 L 3.665 11.478 L 4.503 10.64 L 5.342 9.802 L 6.18 8.964 L 7.018 8.125 L 7.67 7.519 L 7.018 6.875 Z"></path>
    <path d="M 8.066 7.848 L 7.244 7.026 L 6.404 6.188 L 5.213 4.996 L 6.804 3.405 L 8.373 4.974 L 9.589 6.189 L 12.372 8.973 L 12.019 9.326 L 10.804 10.543 L 9.588 11.758 L 8.372 12.973 L 6.805 14.54 L 6.451 14.188 L 6.229 13.968 L 5.213 12.951 L 5.566 12.597 L 6.405 11.759 L 7.244 10.921 L 8.067 10.098 L 1.165 10.098 L 1.165 7.848 Z M 10.48 8.848 L 2.165 8.848 L 2.165 9.098 L 10.479 9.098 L 8.789 10.79 L 7.951 11.629 L 7.111 12.467 L 6.627 12.951 L 6.803 13.127 L 7.665 12.265 L 8.882 11.05 L 10.096 9.836 L 10.958 8.973 L 8.882 6.897 L 7.666 5.682 L 6.804 4.819 L 6.627 4.996 L 7.111 5.48 L 7.95 6.318 L 9.627 7.994 Z" style=""></path>
  </svg> -->
  <svg width="15" height="15" viewBox="0 0 15 15" fill="none" xmlns="http://www.w3.org/2000/svg">
    <defs></defs>
    <g transform="matrix(1, 0, 0, 1, 1.0145, 0)">
      <path fill="#828282" style="" d="M 5.238 6.875 L 4.4 6.037 L 3.562 5.199 L 2.723 4.361 L 1.885 3.523 L 2.106 3.302 L 2.327 3.081 L 2.548 2.86 L 2.769 2.639 L 3.984 3.855 L 5.2 5.07 L 6.415 6.285 L 7.63 7.5 L 6.415 8.716 L 5.2 9.931 L 3.984 11.146 L 2.769 12.361 L 2.548 12.141 L 2.327 11.92 L 2.106 11.699 L 1.885 11.478 L 2.723 10.64 L 3.562 9.802 L 4.4 8.964 L 5.238 8.125 L 5.89 7.519 L 5.238 6.875 Z"></path>
      <path fill="#828282" style="" d="M 8.694 6.875 L 7.856 6.037 L 7.018 5.199 L 6.179 4.361 L 5.341 3.523 L 5.562 3.302 L 5.783 3.081 L 6.004 2.86 L 6.225 2.639 L 7.44 3.855 L 8.656 5.07 L 9.871 6.285 L 11.086 7.5 L 9.871 8.716 L 8.656 9.931 L 7.44 11.146 L 6.225 12.361 L 6.004 12.141 L 5.783 11.92 L 5.562 11.699 L 5.341 11.478 L 6.179 10.64 L 7.018 9.802 L 7.856 8.964 L 8.694 8.125 L 9.346 7.519 L 8.694 6.875 Z"></path>
    </g>
    <path d="M 8.066 10.097 L 7.244 10.919 L 6.404 11.757 L 5.213 12.949 L 6.804 14.54 L 8.373 12.971 L 9.589 11.756 L 12.372 8.972 L 12.019 8.619 L 10.804 7.402 L 9.588 6.187 L 8.372 4.972 L 6.805 3.405 L 6.451 3.757 L 6.229 3.977 L 5.213 4.994 L 5.566 5.348 L 6.405 6.186 L 7.244 7.024 L 8.067 7.847 L 1.165 7.847 L 1.165 10.097 Z M 10.48 9.097 L 2.165 9.097 L 2.165 8.847 L 10.479 8.847 L 8.789 7.155 L 7.951 6.316 L 7.111 5.478 L 6.627 4.994 L 6.803 4.818 L 7.665 5.68 L 8.882 6.895 L 10.096 8.109 L 10.958 8.972 L 8.882 11.048 L 7.666 12.263 L 6.804 13.126 L 6.627 12.949 L 7.111 12.465 L 7.95 11.627 L 9.627 9.951 Z" style="" transform="matrix(-1, 0, 0, -1, 13.537, 17.945)"></path>
  </svg>