<svg width="22" height="22" viewBox="0 0 22 22" fill="none" xmlns="http://www.w3.org/2000/svg">
<path d="M22 0H0V22H22V0Z" fill="white" fill-opacity="0.01"/>
<path d="M8.37975 19.7869C6.84383 19.3296 5.47667 18.4806 4.39411 17.3557C4.79797 16.8771 5.04134 16.2587 5.04134 15.5834C5.04134 14.0646 3.81012 12.8334 2.29134 12.8334C2.19947 12.8334 2.10864 12.8379 2.01909 12.8467C1.89708 12.2502 1.83301 11.6326 1.83301 11.0001C1.83301 10.0419 1.98003 9.11802 2.25274 8.2498C2.26559 8.24998 2.27845 8.25008 2.29134 8.25008C3.81012 8.25008 5.04134 7.01886 5.04134 5.50008C5.04134 5.06406 4.93987 4.65175 4.75928 4.28549C5.81936 3.29979 7.11324 2.56211 8.54855 2.16479C9.00336 3.05628 9.93024 3.66675 10.9997 3.66675C12.0691 3.66675 12.996 3.05628 13.4508 2.16479C14.8861 2.56211 16.18 3.29979 17.2401 4.28549C17.0595 4.65175 16.958 5.06406 16.958 5.50008C16.958 7.01886 18.1892 8.25008 19.708 8.25008C19.7209 8.25008 19.7338 8.24998 19.7466 8.2498C20.0193 9.11802 20.1663 10.0419 20.1663 11.0001C20.1663 11.6326 20.1023 12.2502 19.9803 12.8467C19.8907 12.8379 19.7999 12.8334 19.708 12.8334C18.1892 12.8334 16.958 14.0646 16.958 15.5834C16.958 16.2587 17.2014 16.8771 17.6052 17.3557C16.5227 18.4806 15.1555 19.3296 13.6196 19.7869C13.2651 18.678 12.2262 17.8751 10.9997 17.8751C9.77317 17.8751 8.73422 18.678 8.37975 19.7869Z" stroke="#F38504" stroke-width="1.5" stroke-linejoin="round"/>
<path d="M11.0003 14.2082C12.7722 14.2082 14.2087 12.7718 14.2087 10.9998C14.2087 9.22792 12.7722 7.7915 11.0003 7.7915C9.22841 7.7915 7.79199 9.22792 7.79199 10.9998C7.79199 12.7718 9.22841 14.2082 11.0003 14.2082Z" stroke="#F38504" stroke-width="1.5" stroke-linejoin="round"/>
</svg>
