<svg width="13" height="13" viewBox="0 0 13 13" fill="none" xmlns="http://www.w3.org/2000/svg">
<g id="remix-icons/filled/media/play-mini-fill">
<g id="Group">
<path id="Vector" d="M4.19908 2.94609L9.89092 6.26651C9.93171 6.29039 9.96554 6.32452 9.98905 6.36553C10.0126 6.40653 10.0249 6.45297 10.0249 6.50024C10.0249 6.5475 10.0126 6.59395 9.98905 6.63495C9.96554 6.67595 9.93171 6.71009 9.89092 6.73397L4.19908 10.0544C4.15785 10.0784 4.11098 10.0912 4.06323 10.0913C4.01549 10.0914 3.96856 10.0789 3.9272 10.055C3.88585 10.0312 3.85154 9.9968 3.82775 9.9554C3.80397 9.914 3.79155 9.86705 3.79175 9.8193V3.18009C3.79174 3.13244 3.8043 3.08562 3.82816 3.04438C3.85203 3.00313 3.88635 2.96891 3.92768 2.94517C3.969 2.92143 4.01585 2.90902 4.0635 2.90918C4.11116 2.90934 4.15792 2.92208 4.19908 2.94609Z" fill="#696969"/>
</g>
</g>
</svg>
